<svg xmlns="http://www.w3.org/2000/svg" width="1024" height="1024" preserveAspectRatio="none" style="display:block" viewBox="0 0 2048 2048"><defs><linearGradient id="c" x1="1533.76" x2="1334.18" y1="1701.85" y2="1784" gradientUnits="userSpaceOnUse"><stop class="stop0" offset="0" stop-color="#f7d396"/><stop class="stop1" offset="1" stop-color="#ffeea8"/></linearGradient><linearGradient id="b" x1="1003.05" x2="1203.2" y1="827.644" y2="799.492" gradientUnits="userSpaceOnUse"><stop class="stop0" offset="0" stop-color="#0f5877"/><stop class="stop1" offset="1" stop-color="#1e6e85"/></linearGradient><linearGradient id="a" x1="969.816" x2="841.933" y1="925.467" y2="938.585" gradientUnits="userSpaceOnUse"><stop class="stop0" offset="0" stop-color="#0e5272"/><stop class="stop1" offset="1" stop-color="#206e86"/></linearGradient></defs><path fill="#162b53" d="M1001.05 93.865c513.59-12.802 940.33 393.149 953.17 906.735 12.83 513.59-393.09 940.36-906.68 953.23-513.637 12.87-940.449-393.1-953.288-906.74C81.414 533.453 487.413 106.668 1001.05 93.865"/><path fill="#fefef5" d="M985.674 119.825C1485.3 98.583 1907.48 486.544 1928.44 986.182s-367.24 921.598-866.89 942.278c-499.255 20.66-920.802-367.16-941.745-866.4-20.944-499.244 366.64-921.01 865.869-942.235"/><path fill="#162b53" d="M993.133 154.44c19.337-1.378 45.987-.661 65.407.116a872.5 872.5 0 0 1 248.96 45.175c220.06 75.724 400.77 236.188 501.99 445.748a878 878 0 0 1 74.24 234.413c22.36 138.538 10.96 295.918-34.26 428.698-42.8 125.71-109.93 239.05-206.39 330.92-28.08 26.74-55.6 54.58-86.71 78.11-34.55 25.42-76.15 52.52-112.7 75.72a2207 2207 0 0 0-54.84 35.4c-13.55 8.93-35.1 23.42-49.38 30.37-7.81-1.37-22.36-8.29-30.36-11.81-82.85 28.99-157.28 39.33-243.84 45.48a956 956 0 0 1-102.994-1.2c-166.714-11.93-334.961-71.34-467.934-173.56-182.921-139.88-302.652-346.81-332.763-575.1-21.998-169.685 3.336-350.87 81.258-503.736 14.597-28.635 39.228-71.277 58.953-96.835-6.012-48.878 13.389-76.843 61.199-86.857 4.72-6.441 10.756-13.125 16.231-19.045C543.394 258.923 751.753 163.685 993.133 154.44"/><path fill="#99d8bc" d="M943.299 167.437c38.146-4.293 82.061-3.977 120.211-2.105 11.14.546 26.35.365 36.93 2.014l1.36 1.146c-.04 1.605-.54 5.846-.43 6.997l.84 6.719q.825-7.301 1.89-14.572c52.27 5.243 124.15 16.188 174.07 32.842-8.49 28.174-18.72 56.059-27.86 84.119l-58.71 179.064-1.56 4.151c1.61 6.121 5.02 14.491 7.3 20.561 2.98-10.448 4.53-25.451 7.49-37.272l1.27 1.497-5.89 29.521c-1.64 8.07-3.28 7.48-1.13 15.779 1.39 5.381 5.8 18.631 3.94 23.01l-1.3 5.824c5.08 7.707 10.08 15.416 15.17 23.161 20.81 31.674 32.21 70.382 40.56 107.066 1.24 5.459 4.68 20.826 3.73 25.85l-5.85 3.26.47 1.037c.92 10.652 3.22 35.177 2.82 45.115-1.1 27.336-7.13 69.485-15.04 95.849-3.26-2.638-2.42-2.552-4.11-7.19-10.11-2.638-20.59-11.648-26.81-19.864-19.3-25.509-23.39-47.067-19.89-77.852l-1.01-.626.09-2.27-1.56-.002c-.63 1.955-1.11 3.48-2.27 5.191l-.94.016c-5.11 13.831-4.18 26.414-13.78 38.559l.99 1.992 7.89-14.046c.55 5.154 3.47 20.998 3.03 24.081-7.21 3.51-4.01 1.166-7.29 7.183-4.72 8.667-6.31 45.629-8.37 50.164-3.71.279-5.4-.175-8.1 3.206-10.55 13.206-10.57 49.262-14.44 59.648l-1.49-.207 1.78.055c-4.61-.846-5.11-2.002-9.72-.831-9.02 7.755-19.17 47.723-23.3 47.62-3.68-.091-6.85-.468-9.64 2.371-8.25 8.365-11.38 21.326-17.91 30.962-9 13.296-47.78 46.42-63.44 48.46-.33.04-.66.02-.99.04l-1.91 2.46c-1.67.11-2.57.25-4.23.12-3.78.11-2.26.7-4.94-1.11l-1.24 2.77c-2.25.11-1.38.28-2.66-.07l-2.82.09c-2.28 1.23-1.36 1.16-3.65 1.09l-.49-.34-4.35 3.16c-1.657.3-4.46 1.12-5.727.64-10.242-.72-34.557-11.65-45.911-15.36l-3.368 1.69c-10.016-5.44-26.774-12.39-37.546-16.39l.854-2.2c-10.668-4.955-27.059-10.908-38.598-15.727-4.832-12.656-16.977-50.711-19.542-64.042l.74-.659 5.016 4.15.85-2.103c-9.168-7.23-11.213-13.762-13.754-24.759-5.266-22.782-9.121-36.81 2.662-57.819 2.158 2.99 3.887 5.65 5.869 8.762l3.337-.086c-3.071-3.554-4.928-6.005-7.631-9.853 10.18-13.714 19.587-27.195 28.065-42.035 2.173-3.803 5.067-9.132 8.07-12.213l2.416-1.924c-.093-8.34 25.589-64.752 31.043-71.159l2.036-1.275c13.158-6.542 36.298-40.163 44.794-53.673 5.453-8.671 13.232-23.952 19.277-31.593l1.693.766 1.186 6.51c-.029-6.679-.123-12.852 2.871-18.811 45.108-89.77 95.228-197.699 59.578-299.084-4.52-12.876-13.68-24.327-26.02-31.437-24.219-13.95-41.565-8.374-66.857-1.691l-1.866-2.832-1.243.061c-1.51-10.893-1.89-28.154-2.561-39.76l-3.948-61.645.64-9.376z"/><path fill="#1f6a81" d="M943.299 167.437c38.146-4.293 82.061-3.977 120.211-2.105 11.14.546 26.35.365 36.93 2.014l1.36 1.146c-.04 1.605-.54 5.846-.43 6.997l.84 6.719c-6.87 73.825-13.21 148.824-21.16 222.488l-26.94 234.806a13534 13534 0 0 1-32.51 295.929c-2.73 22.961-4.54 47.362-7.61 69.929a442 442 0 0 1-2.77 20.84l-1.24 2.77c-2.25.11-1.38.28-2.66-.07l-2.82.09c-2.28 1.23-1.36 1.16-3.65 1.09l-.49-.34-4.35 3.16c-1.657.3-4.46 1.12-5.727.64-10.242-.72-34.557-11.65-45.911-15.36l-3.368 1.69c-10.016-5.44-26.774-12.39-37.546-16.39l.854-2.2c-10.668-4.955-27.059-10.908-38.598-15.727-4.832-12.656-16.977-50.711-19.542-64.042l.74-.659 5.016 4.15.85-2.103c-9.168-7.23-11.213-13.762-13.754-24.759-5.266-22.782-9.121-36.81 2.662-57.819 2.158 2.99 3.887 5.65 5.869 8.762l3.337-.086c-3.071-3.554-4.928-6.005-7.631-9.853 10.18-13.714 19.587-27.195 28.065-42.035 2.173-3.803 5.067-9.132 8.07-12.213l2.416-1.924c-.093-8.34 25.589-64.752 31.043-71.159l2.036-1.275c13.158-6.542 36.298-40.163 44.794-53.673 5.453-8.671 13.232-23.952 19.277-31.593l1.693.766 1.186 6.51c-.029-6.679-.123-12.852 2.871-18.811 45.108-89.77 95.228-197.699 59.578-299.084-4.52-12.876-13.68-24.327-26.02-31.437-24.219-13.95-41.565-8.374-66.857-1.691l-1.866-2.832-1.243.061c-1.51-10.893-1.89-28.154-2.561-39.76l-3.948-61.645.64-9.376z"/><path fill="#1f6a81" d="m912.855 711.813 2.036-1.275c3.082 5.821 7.56 23.68 9.481 30.704l15.409 56.908 38.468 141.698c8.501 30.556 15.969 59.159 26.251 89.142-2.28 1.23-1.36 1.16-3.65 1.09l-.49-.34-4.35 3.16c-1.657.3-4.46 1.12-5.727.64-10.242-.72-34.557-11.65-45.911-15.36l-3.368 1.69c-10.016-5.44-26.774-12.39-37.546-16.39l.854-2.2c-10.668-4.955-27.059-10.908-38.598-15.727-4.832-12.656-16.977-50.711-19.542-64.042l.74-.659 5.016 4.15.85-2.103c-9.168-7.23-11.213-13.762-13.754-24.759-5.266-22.782-9.121-36.81 2.662-57.819 2.158 2.99 3.887 5.65 5.869 8.762l3.337-.086c-3.071-3.554-4.928-6.005-7.631-9.853 10.18-13.714 19.587-27.195 28.065-42.035 2.173-3.803 5.067-9.132 8.07-12.213l2.416-1.924c-.093-8.34 25.589-64.752 31.043-71.159"/><path fill="url(#a)" d="M852.778 922.899c-9.168-7.23-11.213-13.762-13.754-24.759-5.266-22.782-9.121-36.81 2.662-57.819 2.158 2.99 3.887 5.65 5.869 8.762l3.337-.086a6312 6312 0 0 0 123.999 158.843c2.044 2.17 3.56 3.81 5.442 6.17-1.313 3.38-1.324 3.67-.822 7.26l-2.216.37c3.176 2.84 10.336 8.92 12.988 11.9-10.242-.72-34.557-11.65-45.911-15.36l-3.368 1.69c-10.016-5.44-26.774-12.39-37.546-16.39l.854-2.2c-10.668-4.955-27.059-10.908-38.598-15.727-4.832-12.656-16.977-50.711-19.542-64.042l.74-.659 5.016 4.15z"/><path fill="#99d8bc" d="M865.714 985.553c-4.832-12.656-16.977-50.711-19.542-64.042l.74-.659 5.016 4.15c35.747 29.766 85.359 69.448 123.926 95.598l1.441 1.04c3.176 2.84 10.336 8.92 12.988 11.9-10.242-.72-34.557-11.65-45.911-15.36l-3.368 1.69c-10.016-5.44-26.774-12.39-37.546-16.39l.854-2.2c-10.668-4.955-27.059-10.908-38.598-15.727"/><path fill="#103041" d="M904.312 1001.28c12.42 5 28.083 11.02 40.06 16.9l-3.368 1.69c-10.016-5.44-26.774-12.39-37.546-16.39z"/><path fill="#0a1720" d="M850.892 848.997a6312 6312 0 0 0 123.999 158.843c-10.285-2.15-110.432-139.301-127.336-158.757z"/><path fill="#103041" d="m851.928 925.002.85-2.103c5.902 3.98 14.254 11.373 20.015 16.042a2935 2935 0 0 0 31.968 25.287c9.271 7.244 69.484 50.852 71.093 56.372-38.567-26.15-88.179-65.832-123.926-95.598"/><path fill="#99d8bc" d="m879.396 784.896 75.531 153.957c14.751 29.588 32.094 61.197 45.433 90.887l-4.35 3.16c-1.657.3-4.46 1.12-5.727.64-2.652-2.98-9.812-9.06-12.988-11.9l2.216-.37c-.502-3.59-.491-3.88.822-7.26-1.882-2.36-3.398-4-5.442-6.17a6312 6312 0 0 1-123.999-158.843c-3.071-3.554-4.928-6.005-7.631-9.853 10.18-13.714 19.587-27.195 28.065-42.035 2.173-3.803 5.067-9.132 8.07-12.213"/><path fill="#103041" d="M980.333 1014.01c5.221 5.84 11.499 12.42 15.677 18.89-1.657.3-4.46 1.12-5.727.64-2.652-2.98-9.812-9.06-12.988-11.9l2.216-.37c-.502-3.59-.491-3.88.822-7.26"/><path fill="#0a1720" d="m912.855 711.813 2.036-1.275c3.082 5.821 7.56 23.68 9.481 30.704l15.409 56.908 38.468 141.698c8.501 30.556 15.969 59.159 26.251 89.142-2.28 1.23-1.36 1.16-3.65 1.09l-.49-.34c-13.339-29.69-30.682-61.299-45.433-90.887l-75.531-153.957 2.416-1.924c3.182 8.446 10.927 22.943 15.238 31.644l26.231 53.688a4347 4347 0 0 0 47.155 96.103c3.068 6.123 15.974 32.898 19.109 37.123 1.663-3.12 2.482-4.553 1.537-8.118L940.77 810.746l-17.261-63.241c-2.753-9.974-6.886-26.688-10.654-35.692"/><path fill="#99d8bc" d="m978.962 625.272 1.693.766 1.186 6.51 20.029 255.939a7366 7366 0 0 1 6.04 79.939c.76 10.507 2.65 24.825 2.48 34.834l.92.11 2.68 1.99a442 442 0 0 1-2.77 20.84l-1.24 2.77c-2.25.11-1.38.28-2.66-.07l-2.82.09c-10.282-29.983-17.75-58.586-26.251-89.142L939.781 798.15l-15.409-56.908c-1.921-7.024-6.399-24.883-9.481-30.704 13.158-6.542 36.298-40.163 44.794-53.673 5.453-8.671 13.232-23.952 19.277-31.593"/><path fill="#0a1720" d="m978.962 625.272 1.693.766 1.186 6.51 20.029 255.939a7366 7366 0 0 1 6.04 79.939c.76 10.507 2.65 24.825 2.48 34.834-.48 3.25.31 2.46-1.45 3.87-.88-2.11-1.01-2.49-1.48-4.72-.87-29.79-4.45-66.337-6.84-96.475a9905 9905 0 0 1-15.668-198.712c-1.444-21.703-6.612-62.503-5.99-81.951"/><path fill="#103041" d="m1010.39 1003.26.92.11 2.68 1.99a442 442 0 0 1-2.77 20.84l-1.24 2.77c-2.25.11-1.38.28-2.66-.07-.56-7.34-.04-18.82.14-26.49.47 2.23.6 2.61 1.48 4.72 1.76-1.41.97-.62 1.45-3.87"/><path fill="#103041" d="m1101.37 175.489.84 6.719c-6.87 73.825-13.21 148.824-21.16 222.488l-26.94 234.806a13534 13534 0 0 1-32.51 295.929c-2.73 22.961-4.54 47.362-7.61 69.929l-2.68-1.99c2.57-10.998 4.66-43.677 6.13-56.915l14.72-125.044 47.24-422.529 14.14-143.24c2.38-25.26 3.82-55.286 7.83-80.153"/><path fill="#0a1720" d="m941.795 177.349.64-9.376.864-.536c2.439 26.47 5.613 68.381 5.93 94.833.876 3.373.705 8.962.755 12.627l-.437 3.796-1.243.061c-1.51-10.893-1.89-28.154-2.561-39.76z"/><path fill="#175d78" d="M949.229 262.27c.876 3.373.705 8.962.755 12.627-1.718-4.427-1.103-7.99-.755-12.627"/><path fill="#162b53" d="M1161.05 512.705c-20.83-15.364-31.21-33.682-39.18-57.963-2.26-6.866-7.79-18.732-5.01-25.839l2.26-.831c21.42 2.607 42.54 13.238 58.52 27.606 3.23 2.907 9.32 10.724 12.4 12.134 1.61 6.121 5.02 14.491 7.3 20.561 2.98-10.448 4.53-25.451 7.49-37.272l1.27 1.497-5.89 29.521c-1.64 8.07-3.28 7.48-1.13 15.779 1.39 5.381 5.8 18.631 3.94 23.01l-1.3 5.824c5.08 7.707 10.08 15.416 15.17 23.161 20.81 31.674 32.21 70.382 40.56 107.066 1.24 5.459 4.68 20.826 3.73 25.85l-5.85 3.26.47 1.037c.92 10.652 3.22 35.177 2.82 45.115-1.1 27.336-7.13 69.485-15.04 95.849-3.26-2.638-2.42-2.552-4.11-7.19-10.11-2.638-20.59-11.648-26.81-19.864-19.3-25.509-23.39-47.067-19.89-77.852l-1.01-.626.09-2.27-1.56-.002c-.63 1.955-1.11 3.48-2.27 5.191l-.94.016c-5.11 13.831-4.18 26.414-13.78 38.559l.99 1.992 7.89-14.046c.55 5.154 3.47 20.998 3.03 24.081-7.21 3.51-4.01 1.166-7.29 7.183-4.72 8.667-6.31 45.629-8.37 50.164-3.71.279-5.4-.175-8.1 3.206-10.55 13.206-10.57 49.262-14.44 59.648l-1.49-.207 1.78.055c-4.61-.846-5.11-2.002-9.72-.831-9.02 7.755-19.17 47.723-23.3 47.62-3.68-.091-6.85-.468-9.64 2.371-8.25 8.365-11.38 21.326-17.91 30.962-9 13.296-47.78 46.42-63.44 48.46-.33.04-.66.02-.99.04l-1.91 2.46c-1.67.11-2.57.25-4.23.12 6.9-9.76 18.57-45.162 23.12-57.848 9.05-30.585 23.54-68.078 34.27-98.965a9131 9131 0 0 0 65.17-194.063c6.82-21.432 21.02-59.187 25.26-78.933-11.67-12.615-22.7-24.103-28.81-40.395 4.15-1.71 8.76-2.949 13.09-4.242-10.68-5.147-41.74-23.337-42.17-35.957 3.33-7.658 11.22-7.16 18.64-7.258 12.46-.163 24.08.498 36.32 3.056"/><path fill="url(#b)" d="m1160.64 619.111 2.99.423c4.91 19.209 11.69 28.629 23.72 44.511-3.61 4.096-4.54 5.272-7.24 9.992-.14 16.488 3.58 28.079 9.87 43.273-1.93 3.659-2.42 4.173-2.9 8.163-5.11 13.831-4.18 26.414-13.78 38.559l.99 1.992 7.89-14.046c.55 5.154 3.47 20.998 3.03 24.081-7.21 3.51-4.01 1.166-7.29 7.183-4.72 8.667-6.31 45.629-8.37 50.164-3.71.279-5.4-.175-8.1 3.206-10.55 13.206-10.57 49.262-14.44 59.648l-1.49-.207 1.78.055c-4.61-.846-5.11-2.002-9.72-.831-9.02 7.755-19.17 47.723-23.3 47.62-3.68-.091-6.85-.468-9.64 2.371-8.25 8.365-11.38 21.326-17.91 30.962-9 13.296-47.78 46.42-63.44 48.46-.33.04-.66.02-.99.04l-1.91 2.46c-1.67.11-2.57.25-4.23.12 6.9-9.76 18.57-45.162 23.12-57.848l2.57-.383c2.2-4.044 7.2-19.608 8.84-24.43 5.22-15.368 9.96-31.219 15.4-46.537a11006 11006 0 0 0 94.55-279.001"/><path fill="#99d8bc" d="m1174.29 766.024 7.89-14.046c.55 5.154 3.47 20.998 3.03 24.081-7.21 3.51-4.01 1.166-7.29 7.183-4.72 8.667-6.31 45.629-8.37 50.164-3.71.279-5.4-.175-8.1 3.206-10.55 13.206-10.57 49.262-14.44 59.648l-1.49-.207 1.78.055c-4.61-.846-5.11-2.002-9.72-.831-9.02 7.755-19.17 47.723-23.3 47.62-3.68-.091-6.85-.468-9.64 2.371-8.25 8.365-11.38 21.326-17.91 30.962-9 13.296-47.78 46.42-63.44 48.46-.33.04-.66.02-.99.04 14.12-15.96 32.8-52.29 44.89-72.129 37.73-61.866 73.15-122.489 107.1-186.577"/><path fill="#103041" d="m1173.3 764.032.99 1.992c-33.95 64.088-69.37 124.711-107.1 186.577-12.09 19.839-30.77 56.169-44.89 72.129l-1.91 2.46c-1.67.11-2.57.25-4.23.12 6.9-9.76 18.57-45.162 23.12-57.848l2.57-.383c-2.72 11.778-9.55 24.132-12.85 35.601 1.07 3.82.07 2.46 2.42 4.87 9.91-18.591 20.75-35.868 31.46-54.044l63.51-107.016c16.72-28.266 30.76-57.176 46.91-84.458"/><path fill="#fce1a1" d="M1192.77 723.164c22.21 26.933 57.54 57.824 46.7 97.716-10.11-2.638-20.59-11.648-26.81-19.864-19.3-25.509-23.39-47.067-19.89-77.852m-66.94-284.686c30.12 10.222 59.43 26.68 61.7 61.79-.32 4.043-.53 9.889-1.66 13.611-1.37-.422-1.95-.56-3.24-1.212-33.3-16.849-44.79-40.227-56.8-74.189m-10.57 79.469c27.42 1.653 46.71 2.199 71.79 14.568 4.74 1.006 5.24 1.406 9.6 3.75l.54-1.195 2.08-3.99c3.59 5.094 7.48 10.346 10.61 15.699l-4.99.816c-33.97 11.835-64.49-9.225-89.63-29.648"/><path fill="#141d35" d="M1199.27 531.08c3.59 5.094 7.48 10.346 10.61 15.699l-4.99.816c-5.67-6.675-10.79-10.038-17.84-15.08 4.74 1.006 5.24 1.406 9.6 3.75l.54-1.195z"/><path fill="#fce1a1" d="M1190.78 514.928c4.18 4.174 7.1 7.297 10.94 11.804 5.08 7.707 10.08 15.416 15.17 23.161 20.81 31.674 32.21 70.382 40.56 107.066 1.24 5.459 4.68 20.826 3.73 25.85l-5.85 3.26c.53-7.692-2.58-23.581-4.18-31.293-8.3-39.998-19.96-73.159-41.27-107.997-3.13-5.353-7.02-10.605-10.61-15.699-1.16-1.571-2.45-2.926-3.76-4.383l-5.07-6.91z"/><path fill="#162b53" d="m1190.03 507.605 6.93-.967c.94 5.004 1.6 8.575 5.22 12.437l.84 1.833-1.3 5.824c-3.84-4.507-6.76-7.63-10.94-11.804zm7.16 27.465c-3.59-2.121-8.36-5.646-8.88-10.081l1.35-1.272c2.18 1.545 3.18 2.404 5.85 2.98 1.31 1.457 2.6 2.812 3.76 4.383z"/><path fill="#24436d" d="M1160.64 619.111c1.5-5.072 3.11-12.167 5.98-16.327l1.3-.013c3.3 4.478-3.88 9.387-4.29 16.763z"/><path fill="#0d2044" d="M1187.53 500.268c1.36 2.479 1.04 3.915.98 6.742l1.52.595.75 7.323-.34 4.859c-.45-1.586-.92-3.041-1.42-4.61l-3.15-1.298c1.13-3.722 1.34-9.568 1.66-13.611"/><path fill="#bec2a6" d="m1196.96 503.122 1.69.055a431 431 0 0 0 3.53 15.898c-3.62-3.862-4.28-7.433-5.22-12.437z"/><path fill="#5b647a" d="M1196.96 503.122c-.62-3.692-1.09-3.221-.02-6.299 1.69 2.151 1.5 3.607 1.71 6.354z"/><path fill="#fce1a1" d="M1188.1 667.384c15.32 8.822 40.51 26.185 50.99 40.01 7.95 10.473 15.22 30.463 13.45 43.262-34.28-8.727-65.45-48.131-64.44-83.272m-15.79-54.823c12.11 1.939 36.16 11.317 46.49 18.357 17.62 12.001 25.77 29.587 29.84 49.784-38.83-4.17-63.15-33.28-76.33-68.141m-24.07-50.653c17.13.055 37.85 3.486 53.4 10.718 20.35 9.462 24.72 20.503 31.87 39.885a132.3 132.3 0 0 1-27.4-4.482c-25.02-7.092-45.1-23.572-57.87-46.121"/><path fill="#fbf7ce" d="M1235.72 755.544c4.35 1.298 8.02 3.009 12.17 4.802-.67 5.338-.76 10.502-.97 15.871l-1.47-.431a352 352 0 0 0-9.73-20.242"/><path fill="#bec2a6" d="m1204.5 557.508 1.31.159c1.93 2.855 2.73 3.713 3.74 7.087l-.99 1.038-3.21-.951c-2.89-1.375-7.46-3.129-9.28-5.437 2.57-2.058 4.45-1.504 8.43-1.896"/><path fill="#fbf7ce" d="M1237.15 688.796c3.66.301 5.24.168 8.56 1.834 2.27 2.923 1.99 6.941 2.23 10.802-4.01-2.515-7.9-8.652-10.79-12.636m-2.46-66.166 1.25.778c.82 2.624.95 1.333-.1 3.961-3.86 1.112-2.67.73-7.41-1.411l-3.37-2.05.65-.788z"/><path fill="#fce1a1" d="M838.588 286.466c55.48.416 97.234 15.236 36.812 66.411-10.983 9.302-23.646 17.684-35.759 25.496a590.2 590.2 0 0 1 33.828 140.03c8.549 71.719 3.897 151.866-24.208 218.566-4.164 9.883-11.925 29.477-18.043 37.266 3.509-26.084 9.391-50.067 12.391-77.815 11.575-107.068 3.477-201.452-33.36-302.907-10.599 4.326-25.594 12.317-36.903 17.372a750 750 0 0 1-73.436 28.262c-19.789 6.447-47.885 13.939-68.973 18.806-1.019.235-.835 1.721-1.006 3.158l1.463 1.841c7.646 2.47 23.181-3.035 31.415-5.082 52.021-12.931 94.928-30.513 142.882-53.939 40.02 103.498 43.114 223.286 24.426 331.627-3.128 18.137-7.201 36.1-9.859 54.307l1.349 2.162c1.696.773 1.978 1.347 3.567.839 7.631-2.44 20.679-29.263 24.088-36.538 54.777-116.901 40.02-256.902-.391-374.981 15.802-8.756 36.101-25.127 48.897-37.404a815 815 0 0 1 23.061 249.976c-7.81 67.693-30.465 134.496-64.633 193.324-24.511 42.2-50.535 53.726-36.616 107.197 12.145 48.302 29.23 101.474 50.599 146.32 17.379 36.48 54.43 11.37 78.636 59.85-22.861 38.06-92.145 60.09-134.304 52.88-64.758-11.08 5.778-61.88 12.014-85.9 4.645-17.89-8.251-61.78-13.496-80.895-11.021-38.586-19.557-80.767-40.293-115.513-8.195-11.482-23.662-20.887-36.412-26.266-128.503-54.188-210.168-174.27-262.973-298.469-9.871-23.217-20.538-43.921-32.618-66.094 26.728 6.095 66.987 5.764 94.02 1.974 6.239-.874 11.976.283 17.497-2.914 1.403-3.145 1.285-1.533.053-5.012-2.211-1.54-3.341-1.683-6.209-1.331-36.975 4.545-79.01 8.412-114.211-6.002-11.316-4.634-16.231-15.21-19.866-25.869 10.67-26.493 57.441-52.046 83.043-64.561 104.604-51.129 226.865-86.365 343.528-90.172"/><path fill="#162b53" d="M825.721 296.446c15.279-1.17 43.337-1.661 55.544 8.866 2.438 2.103 4.08 4.816 4.067 8.137-.022 5.383-4.176 10.518-7.573 14.292-43.069 47.846-197.681 97.313-260.563 111.622a759 759 0 0 1-127.091 18.424c-15.152.328-46.636 1.712-56.73-7.96-19.87-19.035 43.789-52.089 55.589-58.39 98.776-52.738 224.83-89.587 336.757-94.991"/><path fill="#e99972" d="M822.525 311.42c7.662-.941 40.381-1.969 43.659 5.127-2.094 12.046-46.717 34.869-59.404 40.945-95.44 45.708-209.339 80.657-315.258 86.458-15.582.212-32.568.597-47.54-3.831 21.651-21.575 52.224-37.519 79.908-50.397 91.013-42.338 198.619-71.926 298.635-78.302"/><path fill="#1f6a81" d="M1681.26 478.592c2.91-2.097 4.08-3.837 6.84-3.672 6.26 5.893 16.92 20.821 22.37 28.16a864 864 0 0 1 73.93 116.021l-15.43 9.328c4.32.247 12.05-5.313 16.29-7.928a695.3 695.3 0 0 1 59.33 139.451c-17.13 5.134-36.83 14.03-53.97 20.508l.25 1.472c17.55-6.285 36.93-14.467 54.09-20.212 15.35 51.491 27.82 102.6 32.75 156.258.77 8.43 1.73 17.002 2.67 25.415-34.76 3.276-69.24 7.439-103.93 11.038a6287 6287 0 0 0-176.91 20.005c-13.06 1.354-26.5 3.567-39.55 5.398-6.27.477-134.88-56.124-149.05-63.984-8.74-1.446-27.96-10.577-36.81-14.462-24.54 12.27-49.98 26.589-74.21 39.775-9.35-8.663-36.94-12.016-50.16-14.281 6.67-4.217 16.66-8.728 23.82-11.894 19.74-8.728 34.87-19.491 48.55-36.318 2.71-3.332 6.74-6.287 8.84-9.11-1.67-5.551 8.55-15.772 3.41-24.089-8.86-5.308-37.25 1.089-48.13 3.265 11.84-6.193 15.77-8.61 25.93-17.225 19.4-16.445 38.62-49.949 39.93-75.547 15.25-14.563 38.36-32.962 55.01-46.935 6.67-5.509 35.63-28.743 40.08-33.992 3.77-2.044 39.36-32.354 44.82-37.245 21.39-19.12 45.58-37.313 66.78-56.024 17.02-13.198 35.84-29.986 52.41-44.074 9.86-7.737 49.57-39.593 55.98-47.645 4.6-2.983 9.9-7.791 14.07-11.457"/><path fill="#99d8bc" d="M1681.26 478.592c2.91-2.097 4.08-3.837 6.84-3.672 6.26 5.893 16.92 20.821 22.37 28.16a864 864 0 0 1 73.93 116.021l-15.43 9.328c-11.92 5.639-27.77 15.138-39.66 21.804l-71.86 40.162L1461 797.83l-86.56 47.867c-9.27 5.037-36.9 19.034-43.47 23.863-1.67-5.551 8.55-15.772 3.41-24.089-8.86-5.308-37.25 1.089-48.13 3.265 11.84-6.193 15.77-8.61 25.93-17.225 19.4-16.445 38.62-49.949 39.93-75.547 15.25-14.563 38.36-32.962 55.01-46.935 6.67-5.509 35.63-28.743 40.08-33.992 3.77-2.044 39.36-32.354 44.82-37.245 21.39-19.12 45.58-37.313 66.78-56.024 17.02-13.198 35.84-29.986 52.41-44.074 9.86-7.737 49.57-39.593 55.98-47.645 4.6-2.983 9.9-7.791 14.07-11.457m109.61 303.34c17.55-6.285 36.93-14.467 54.09-20.212 15.35 51.491 27.82 102.6 32.75 156.258.77 8.43 1.73 17.002 2.67 25.415-34.76 3.276-69.24 7.439-103.93 11.038a6287 6287 0 0 0-176.91 20.005c-13.06 1.354-26.5 3.567-39.55 5.398-6.27.477-134.88-56.124-149.05-63.984 5.98-1.093 29.42-9.742 36.6-12.016 25.44-8.051 50.98-16.47 76.21-25.129a7535 7535 0 0 0 161.26-57.355c32.9-11.864 74.32-25.882 105.86-39.418M271.692 610.74c5.526 2.908 18.606 9.357 23.232 12.554 21.82 8.599 27.133 11.726 45.168 25.671 3.298 2.437 2.422.913 3.402 4.26 1.62 1.642 4.677 4.576 6 6.245 1.209 1.384 4.721 5.243 5.532 6.558l2.703.816.335 11.811c.686 3.075 1.541 6.233 1.712 9.358-2.468 9.835-2.12 35.696-2.907 46.665a915 915 0 0 0-.963 49.573c.85 6.625 1.108 10.886 1.288 17.578q2.667 16.12 5.555 32.201c29.888 160.682 132.376 287.64 286.194 335.09 9.491 2.93 25.28 6.06 33.4 10.18l.095 1.22c-35.9-3.03-61.572-14.72-94.928-27.61-5.569-2.15-16.359-9.77-20.198-11.24l-9.395-.75c-2.442 1.62-2.962 2.12-5.755 3.16 4.263 2.69 6.189 3.4 10.926 5.25-36.003 6.37-38.933 16.6-66.168 33.25-1.757.83-1.93.58-2.98 1.9-25.805 6.81-59.147 19.09-85.259 27.25l-207.186 64.08c-16.087-45.5-30.353-123.49-34.795-172.21 65.425-6.28 130.805-13.01 196.136-20.2l.011-2.31-11.022 1.05-2.462.38a5115 5115 0 0 1-117.822 12.7c-20.848 2.09-44.424 4.92-65.115 6.07-2.863-52.48-3.795-103.914.694-156.386 7.465-.197 14.286 1.004 21.464-.569l-21.861-1.525c2.99-17.326 4.489-36.997 7.315-54.911a811 811 0 0 1 31.993-132.846l8.909 2.853-.497-2.509c-3.177-1.08-4.044-1.47-7.048-2.998-1.062-11.16 51.047-132.536 63.078-140.301z"/><path fill="#162b53" d="M271.692 610.74c5.526 2.908 18.606 9.357 23.232 12.554 21.82 8.599 27.133 11.726 45.168 25.671 3.298 2.437 2.422.913 3.402 4.26 1.62 1.642 4.677 4.576 6 6.245 1.209 1.384 4.721 5.243 5.532 6.558l2.703.816.335 11.811c.686 3.075 1.541 6.233 1.712 9.358-2.468 9.835-2.12 35.696-2.907 46.665a915 915 0 0 0-.963 49.573c.85 6.625 1.108 10.886 1.288 17.578q2.667 16.12 5.555 32.201l-2.543 1.097c3.423 17.247 7.346 36.52 12.357 53.375 4.256 14.313 10.596 29.577 15.826 43.603l-4.741 4.951c2.026 4.243 4.011 8.586 6.278 12.697l.871 1.62-1.418 1.336c1.647.291 3.133.55 4.794.782-12.34.283-23.711.496-36.005-.822l-7.416-2.243c-3.713 1.678-6.647 1.472-10.777 1.68-14.135-.129-29.958-2.011-44.264-2.435-34.49-1.022-69.567-3.863-103.963-4.878-1.043-.56-1.782-.386-3.164-.458l-21.861-1.525c2.99-17.326 4.489-36.997 7.315-54.911a811 811 0 0 1 31.993-132.846l8.909 2.853-.497-2.509c-3.177-1.08-4.044-1.47-7.048-2.998-1.062-11.16 51.047-132.536 63.078-140.301z"/><path fill="#99d8bc" d="m206.031 755.053 8.909 2.853c29.716 9.126 62.107 18.604 91.33 29.089 14.578 5.231 22.295 14.432 42.501 19.326l2.43 17.568c-6.722-6.986-10.827-10.67-19.612-15.572-9.831-5.485-57.849-29.697-50.28 1.736 8.72 36.214 43.217 72.789 82.812 73.039 2.094 9.115 4.009 15.538 6.932 24.445-14.266-9.279-68.507-42.544-83.516-28.01-1.615 3.546-1.958 7.004-.169 10.56 13.27 26.382 36.927 49.11 63.384 60.339-3.713 1.678-6.647 1.472-10.777 1.68-14.135-.129-29.958-2.011-44.264-2.435-34.49-1.022-69.567-3.863-103.963-4.878-1.043-.56-1.782-.386-3.164-.458l-21.861-1.525c2.99-17.326 4.489-36.997 7.315-54.911a811 811 0 0 1 31.993-132.846"/><path fill="#1f6a81" d="M271.692 610.74c5.526 2.908 18.606 9.357 23.232 12.554 21.82 8.599 27.133 11.726 45.168 25.671 3.298 2.437 2.422.913 3.402 4.26 1.62 1.642 4.677 4.576 6 6.245 1.209 1.384 4.721 5.243 5.532 6.558l2.703.816.335 11.811c.686 3.075 1.541 6.233 1.712 9.358-2.468 9.835-2.12 35.696-2.907 46.665-.451-4.438-.568-5.055-1.992-9.297-1.308 7.387-.935 13.038-1.738 19.967-.363-5.043-.709-8.65-1.463-13.662l-1.08-.907.205-2.471c-2.049 6.428-1.636 9.442-3.032 15.356l-.426 1.749c-1.467-11.654 4.877-16.589-7.288-20.577-5.083-1.957-7.547-3.64-12.086-6.474-3.679.829-5.601.819-7.944 3.778-8.057-4.514-30.299-17.074-34.519-6.176-7.361 19.006 14.133 57.958 25.064 69.857-10.017-4.464-24.819-8.596-35.536-11.947a3593 3593 0 0 0-60.591-18.477c-3.177-1.08-4.044-1.47-7.048-2.998-1.062-11.16 51.047-132.536 63.078-140.301z"/><path fill="#0d2044" d="m293.686 626.394 1.238-3.1c21.82 8.599 27.133 11.726 45.168 25.671 3.298 2.437 2.422.913 3.402 4.26 1.62 1.642 4.677 4.576 6 6.245 1.209 1.384 4.721 5.243 5.532 6.558l2.703.816.335 11.811c.686 3.075 1.541 6.233 1.712 9.358-2.468 9.835-2.12 35.696-2.907 46.665-.451-4.438-.568-5.055-1.992-9.297-1.308 7.387-.935 13.038-1.738 19.967-.363-5.043-.709-8.65-1.463-13.662l-1.08-.907.205-2.471c-2.049 6.428-1.636 9.442-3.032 15.356l-.426 1.749c-1.467-11.654 4.877-16.589-7.288-20.577-5.083-1.957-7.547-3.64-12.086-6.474-27.156-22.74-38.386-57.216-34.283-91.968"/><path fill="#24436d" d="M358.064 678.655c.686 3.075 1.541 6.233 1.712 9.358-2.468 9.835-2.12 35.696-2.907 46.665-.451-4.438-.568-5.055-1.992-9.297-.535-12.829 2.726-32.7 3.187-46.726"/><path fill="#7dbfa0" d="m346.74 660.2 2.754-.73c1.209 1.384 4.721 5.243 5.532 6.558-.434 3.211-.421 4.295-1.811 7.303l-1.342-.183c-2.068-4.319-3.49-8.464-5.133-12.948"/><path fill="#162b53" d="M340.092 648.965c3.298 2.437 2.422.913 3.402 4.26-3.045-1.305-1.678-.26-3.402-4.26"/><path fill="#6da59a" d="M343.494 653.225c1.62 1.642 4.677 4.576 6 6.245l-2.754.73z"/><path fill="#fce1a1" d="M303.002 637.241c31.551 10.585 50.092 49.067 47.82 80.565-31.966-5.449-48.108-52.407-47.82-80.565"/><path fill="#103041" d="M271.692 610.74c5.526 2.908 18.606 9.357 23.232 12.554l-1.238 3.1c-6.92-2.093-19.099-8.13-23.213-14.296z"/><path fill="#fce1a1" d="M298.327 886.77c35.048 6.303 63.984 21.493 85.321 50.286 2.026 4.243 4.011 8.586 6.278 12.697-41.964-2.288-71.013-27.678-91.599-62.983"/><path fill="#99d8bc" d="M340.055 724.836c12.165 3.988 5.821 8.923 7.288 20.577l-1.049 2.127c-2.05-1.163-10.825-12.175-13.511-15.146.688-1.897 5.541-5.948 7.272-7.558"/><path fill="#fbf7ce" d="M354.877 725.381c1.424 4.242 1.541 4.859 1.992 9.297a915 915 0 0 0-.963 49.573l-1.81-3.483c-.564-11.805-.45-23.595-.957-35.42.803-6.929.43-12.58 1.738-19.967"/><path fill="#7dbfa0" d="M320.025 722.14c2.343-2.959 4.265-2.949 7.944-3.778 4.539 2.834 7.003 4.517 12.086 6.474-1.731 1.61-6.584 5.661-7.272 7.558a455 455 0 0 0-12.758-10.254"/><path fill="#fbf7ce" d="M357.194 801.829q2.667 16.12 5.555 32.201l-2.543 1.097a336 336 0 0 1-4.383-32.027z"/><path fill="#6b7782" d="m354.096 780.768 1.81 3.483c.85 6.625 1.108 10.886 1.288 17.578l-1.371 1.271c-.94-4.047-1.455-17.673-1.727-22.332"/><path fill="#fce1a1" d="M290.126 803.447a108 108 0 0 1 33.265 12.276c23.756 13.72 32.489 32.307 39.279 57.653a88.5 88.5 0 0 1-23.405-7.254c-25.855-12.432-40.114-36.5-49.139-62.675m2.232-81.046c10.921.991 22.568 8.924 30.538 16.152a85.05 85.05 0 0 1 28.111 59.364c-36.81-10.316-51.702-40.1-58.649-75.516"/><path fill="#1f6a81" d="M188.584 944.335c1.382.072 2.121-.102 3.164.458 34.396 1.015 69.473 3.856 103.963 4.878 14.306.424 30.129 2.306 44.264 2.435 4.13-.208 7.064-.002 10.777-1.68l7.416 2.243c12.294 1.318 23.665 1.105 36.005.822l-1.272 2.327c-8.237 2.355-22.865-.266-31.729-.966l-1.009 2.025.048 1.865c-1.445 1.066-2.347 1.744-3.878 2.694-2.435.949-3.234 1.129-5.367 2.585l-1.193.524c-11.487 4.817-25.38-.348-35.909 5.598-9.513 17.503 50.225 59.917 70 62.197-1.303 5.9-2.412 10.99-3.33 16.97-32.159 5.39-23.033 13.83-3.159 30.25l-14.528 1.53-11.022 1.05-2.462.38a5115 5115 0 0 1-117.822 12.7c-20.848 2.09-44.424 4.92-65.115 6.07-2.863-52.48-3.795-103.914.694-156.386 7.465-.197 14.286 1.004 21.464-.569"/><path fill="#103041" d="M191.748 944.793c34.396 1.015 69.473 3.856 103.963 4.878 14.306.424 30.129 2.306 44.264 2.435 4.13-.208 7.064-.002 10.777-1.68l7.416 2.243c12.294 1.318 23.665 1.105 36.005.822l-1.272 2.327c-8.237 2.355-22.865-.266-31.729-.966l-1.009 2.025c-51.706-7.183-116.882-4.493-169.634-11.373z"/><path fill="#9fcdb0" d="m350.752 950.426 7.416 2.243c-7.06.444-11.227.163-18.193-.563 4.13-.208 7.064-.002 10.777-1.68"/><path fill="#162b53" d="M362.749 834.03c29.888 160.682 132.376 287.64 286.194 335.09 9.491 2.93 25.28 6.06 33.4 10.18l.095 1.22c-35.9-3.03-61.572-14.72-94.928-27.61-5.569-2.15-16.359-9.77-20.198-11.24l-9.395-.75c-2.442 1.62-2.962 2.12-5.755 3.16l-.711.55c-.166-3.44-.903-4.55-2.279-7.66-2.557 1.57-5.96 3.88-8.69 4.75-24.698 15.27-69.138 18.49-95.859 8.34-9.803-3.73-24.451-9.45-31.071-17.73-3.057-13.02 33.049-23.74 42.448-26.35l.004-2.93c-30.809-.07-51.201-5.5-77.587-21.32l-15.581 1.67.011-2.31 14.528-1.53c-19.874-16.42-29-24.86 3.159-30.25.918-5.98 2.027-11.07 3.33-16.97-19.775-2.28-79.513-44.694-70-62.197 10.529-5.946 24.422-.781 35.909-5.598l1.193-.524c2.133-1.456 2.932-1.636 5.367-2.585 1.531-.95 2.433-1.628 3.878-2.694l-.048-1.865 1.009-2.025c8.864.7 23.492 3.321 31.729.966l1.272-2.327a130 130 0 0 1-4.794-.782l1.418-1.336-.871-1.62c-2.267-4.111-4.252-8.454-6.278-12.697l4.741-4.951c-5.23-14.026-11.57-29.29-15.826-43.603-5.011-16.855-8.934-36.128-12.357-53.375z"/><path fill="#fce1a1" d="M362.749 834.03c29.888 160.682 132.376 287.64 286.194 335.09 9.491 2.93 25.28 6.06 33.4 10.18l.095 1.22c-35.9-3.03-61.572-14.72-94.928-27.61-5.569-2.15-16.359-9.77-20.198-11.24l-9.395-.75c-2.442 1.62-2.962 2.12-5.755 3.16l-.711.55c-.166-3.44-.903-4.55-2.279-7.66l-1.71-3.1c2.217-.25 3.055-.65 5.245-1.32-30.565-21.53-59.914-42.2-85.307-70.14-19.275-21.2-33.97-44.06-50.001-67.651-8.228-15.375-14.267-28.363-21.315-44.272l-5.287.886-.871-1.62c-2.267-4.111-4.252-8.454-6.278-12.697l4.741-4.951c-5.23-14.026-11.57-29.29-15.826-43.603-5.011-16.855-8.934-36.128-12.357-53.375z"/><path fill="#141d35" d="m383.648 937.056 4.741-4.951 7.695 18.382-5.287.886-.871-1.62c-2.267-4.111-4.252-8.454-6.278-12.697"/><path fill="#0d2044" d="M552.707 1132.55c4.729 2.93 10.024 6.06 14.605 9.12l-9.395-.75c-2.442 1.62-2.962 2.12-5.755 3.16l-.711.55c-.166-3.44-.903-4.55-2.279-7.66l-1.71-3.1c2.217-.25 3.055-.65 5.245-1.32"/><path fill="#162b53" d="M547.462 1133.87c5.127 1.71 6.465 3.45 10.455 7.05-2.442 1.62-2.962 2.12-5.755 3.16l-.711.55c-.166-3.44-.903-4.55-2.279-7.66z"/><path fill="#99d8bc" d="m390.797 951.373 5.287-.886c7.048 15.909 13.087 28.897 21.315 44.272l-.726.311c-3.528-2.072-4.592-2.272-8.585-3.484-4.109-1.386-21.991-12.187-28.817-14.938-10.306-4.153-17.071-5.443-27.216-8.782l-.47-1.508-.619-2.337c2.133-1.456 2.932-1.636 5.367-2.585 1.531-.95 2.433-1.628 3.878-2.694l-.048-1.865 1.009-2.025c8.864.7 23.492 3.321 31.729.966l1.272-2.327a130 130 0 0 1-4.794-.782z"/><path fill="#0d2044" d="m390.797 951.373 5.287-.886c7.048 15.909 13.087 28.897 21.315 44.272l-.726.311c-3.528-2.072-4.592-2.272-8.585-3.484-3.98-8.082-12.848-22.17-17.702-30.397-15.044-1.372-18.838-2.109-33.308 2.3l-.745-2.053c1.531-.95 2.433-1.628 3.878-2.694l-.048-1.865 1.009-2.025c8.864.7 23.492 3.321 31.729.966l1.272-2.327a130 130 0 0 1-4.794-.782z"/><path fill="#103041" d="M350.966 964.021c2.133-1.456 2.932-1.636 5.367-2.585l.745 2.053-5.493 2.869z"/><path fill="#99d8bc" d="M383.864 1032.34c15.197 4.06 32.518 3.89 48.181 3.55 5.627 6.56 10.511 11.56 16.647 17.69-22.603-8.17-44.559-8.92-68.158-4.27.918-5.98 2.027-11.07 3.33-16.97"/><path fill="#fbf7ce" d="M456.004 1103.05c10.681-.69 21.542-3.19 32.154-3.56 1.248-.04 6.436 2.82 7.795 3.57l-1.482 1.22c-16.506-1.11-21.88-1.37-38.471 1.7z"/><path fill="#6b7782" d="M495.953 1103.06c2.884.6 4.908.65 6.954 2.68-3.152.57-5.332-.49-8.436-1.46z"/><path fill="#fce1a1" d="M325.237 978.033c37.326-1.223 81.543 15.654 103.321 47.017-38.291 8.04-80.233-18.3-103.321-47.017m65.362 81.347c30.487-4.05 70.661 4.53 91.947 28.05-6.939 2.54-9.019 3.09-16.308 4.29-33.951 3.32-67.113-7.44-92.93-29.52 5.986-1.42 11.203-2.03 17.291-2.82m82.059 57.02c22.93-3.67 45.832 2.73 65.456 14.42-16.115 6.59-27.686 10.68-44.871 12.8-21.7 3.84-46.342-4.71-65.454-14.16 17.03-7.47 26.501-11.14 44.869-13.06"/><path fill="#0d2044" d="M549.172 1136.97c1.376 3.11 2.113 4.22 2.279 7.66-2.79.16-8.09-1.96-10.969-2.91 2.73-.87 6.133-3.18 8.69-4.75"/><path fill="#fefef5" d="M1184.73 1021.24c44.59 25.3 101.52 50.75 148.43 73.86l126.41 60.99c37.88 18.49 78.9 39.42 117.21 56.57-.67 41.65.04 84.52.05 126.27l-.42 218.45c-40.83-14.3-81.43-37.49-121.18-55.01-91.75-40.45-180.81-86.18-272.01-127.75l-.01-223.93c.02-38.58-1.22-91.86 1.52-129.45"/><path fill="#0d2044" d="M1233.06 1091.25c14.43-2.1 34.44 10.32 47.79 16.83 17.62 8.69 35.34 17.15 53.18 25.38a8870 8870 0 0 1 130.08 61.53c16.36 7.89 34.4 15.83 50.3 23.92 11.71 7.87 22.29 23.28 25.55 37.2 3.66 15.62 2.33 36.78 2.39 52.93l.23 71.09c.06 22.77.22 45.58.24 68.35.01 20.46.71 41.53-23.55 47.45-11.88.1-41.22-16.69-53.72-22.78l-107.09-52.81q-40.35-19.08-80.88-37.77c-24.98-11.63-47.76-17.81-60.14-44.5a60 60 0 0 1-5.6-21.36c-.95-12.23-.51-26.18-.38-38.55.56-50.48-.4-100.96.07-151.42.16-17.81 4.62-28.19 21.53-35.49"/><path fill="#fbf7ce" d="M1234.3 1099.92c10.59-.5 45.69 18.24 57.54 23.88l99.7 47.21 76.13 36.1c13.71 6.43 29.26 12.28 42 20.3 6.33 3.99 11.17 9.36 14.85 15.84 3.93 6.93 6.7 14.47 7.56 22.41 1.72 15.79 2.27 200.12-.57 209.39-1.8 5.85-6.53 9.1-11.59 11.98-10.71.25-42.57-17.81-53.63-23.3l-124.42-61.45c-31.52-15.23-64.44-28.75-95.83-44.31-5.79-3.13-11.53-8.57-15.22-13.95-13-18.98-9.94-45.64-9.87-67.51l.14-76.32c.06-15.98 0-31.96-.16-47.94-.2-18.97-4.23-40.49 13.37-52.33"/><path fill="#162b53" d="M1246.47 1114.82c8.27.53 29.02 11.5 37.33 15.63 14.7 7.42 29.48 14.66 44.36 21.72 39.42 18.72 78.67 37.79 117.74 57.22 18.15 8.81 37.16 16.77 55.03 26.19 5.19 2.73 11.87 8.61 14.48 13.85 1.42 2.84 2.41 11.73 2.35 14.69-.51 22.99 2.67 193.29-1.27 205.2-2.53 2.72-1 1.94-4.83 2.3-11.97-5.01-28.72-14.3-40.86-20.3l-89.78-44.36c-25.4-12.46-50.92-24.69-76.54-36.7-15.74-7.37-31.77-14.57-47.1-22.45-12.69-6.52-19.07-17.3-19.99-31.22-.81-12.17-.45-24.87-.4-37.08l.1-65.82-.22-51.93c-.08-10.69-.72-23.47.79-33.89 1.06-7.37 3.02-9.14 8.81-13.05"/><path fill="#fefef5" d="M1441.19 1241.69c3.51 1.3 8.43 9.27 10.76 12.63-12.8 13.68-32.69 30.84-46.87 43.65-17.8 16.09-34.75 32.16-52.32 48.43-4.36-4.28-7.58-7.98-11.58-12.58 32.33-26.38 66.25-63.95 100.01-92.13m-48.41-20.98c2.91 2.18 8.65 8.53 11.4 11.42-26.41 28.21-67.8 62.93-97.14 90.06-2.04-1.54-9.3-10.06-11.43-12.48 31.42-27.16 65.66-60.63 97.17-89m-321 214.07c7.61 2.54 15.52 5.31 22.86 8.57 64.24 28.48 128.89 56.45 192.4 86.54 43.03 20.39 85.38 42.19 128.13 63.09 33.59 16.42 67.45 31.27 100.54 48.71A16302 16302 0 0 1 1333.34 1810c-39.15-19.38-77.32-36.65-116.77-55.2l-219.583-103.71a4937 4937 0 0 0-66.666-31.21c-13.308-6.06-30.601-13.28-43.16-20.19 13.948-16.97 49.115-45.62 67.016-61.41 38.388-33.88 77.833-71.61 117.603-103.5"/><path fill="#162b53" d="M1346.4 1616.3c29.18-4.13 65.05 8.07 73.04 39.57a48.62 48.62 0 0 1-6.31 38.29c-11.44 17.68-30.54 24.68-50.17 28.56-38.6 5.88-67.9-5.81-75.88-47.28-7.01-36.46 29.81-54.22 59.32-59.14"/><path fill="#fce1a1" d="M1347.22 1631.23c20.75-2.3 50.45 3.95 55.88 27.55 2.03 9.18.09 18.8-5.34 26.48-8.74 12.59-21.96 16.59-35.97 19.41-14 2.02-29.32 1.82-41.89-5.52a34.7 34.7 0 0 1-16.57-22.35c-6.33-28.06 21.39-41.04 43.89-45.57"/><path fill="#0d2044" d="M1348.38 1636.15c12.49-1.26 21.34-.68 33.13 4.7 26.76 12.19 24.16 43.04-1.25 54.93-4.59 2.15-9.25 3.36-14.2 4.77-16.1 2.06-45.02 4.06-50.21-17.01-7.2-29.25 5.5-40.71 32.53-47.39"/><path fill="#fce1a1" d="m1337.36 1668.29-1.4.08c-6.15.33-7.66.95-11.93-2.85-2.27-10.82 10.29-16.56 18.48-19.92 21.99-9.04 63.67 6.22 44.15 34.9-10.47 15.73-61.72 20.38-63.91-2.75 3.41-5.02 9.08-3.82 14.85-3.89 2.06 3.97 3.8 8.28 7.07 11.14 2.84.76 1.54 1 4.05-.33l1.46-2.29c-8.5-4.64-6.06-8.05-12.82-14.09"/><path fill="#162b53" d="M1337.36 1668.29c3.48-25.38 38.9-16.58 39.91.85-2.39 5.81-4.09 5.01-8.86 8.64.5-.38-3.81 6.97-4.06 7.38-1.81.34-9.77-2.5-14.17-2.78-8.5-4.64-6.06-8.05-12.82-14.09"/><path fill="#fce1a1" d="M1353.48 1659.37c6.48.53 12.1 1.57 13.8 8.61-1.17 4.16-.54 2.7-3.89 5.98l-3.62 2.74c-15.11.68-20.51-11.09-6.29-17.33"/><path fill="#f2c471" d="M1353.48 1659.37c6.48.53 12.1 1.57 13.8 8.61-1.17 4.16-.54 2.7-3.89 5.98l-3.62 2.74c-.58-4.42-1.02-6.35-2.25-10.64-1.4-1.35-3.01-4.8-4.04-6.69"/><path fill="#162b53" d="M1161.67 1595.96c3.48.51 49.82 22.87 54.65 25.48 31.65 17.12-34.59 34.84-46.25 38.4-13.03 4.68-42.64 12.81-53.26-.37-4.76-5.92-3.45-13.18-2.49-20.16 13.71-14.74 30-33.87 47.35-43.35"/><path fill="#fce1a1" d="M1179.34 1614.45c9.88 4.88 19.83 9.64 29.84 14.25-18.1 6.55-49.03 18.35-67.07 21.28-4.05.78-4.73 1.15-8.62.26l.27-1.14 3.28-1.59c14.65-10.76 28.52-21.16 42.3-33.06"/><path fill="#fce1a1" d="M1137.04 1647.51c1.93.48 3.05.78 4.96 1.41l.11 1.06c-4.05.78-4.73 1.15-8.62.26l.27-1.14zm23.11-42.89 10.09 5.2c-8.46 8.22-26.21 21.74-35.7 29.36-2.19 1.57-2.44 2.09-5.01 2.55l-1.95-1.61c-.22-6.29 26.79-30.03 32.57-35.5"/><path fill="#fefef5" d="M1119.65 1646.71c3.19 1.67 6.91 5.86 9.66 8.56-6.33-1.69-7.45-2.24-9.66-8.56"/><path fill="#162b53" d="M1226.92 1522.92c6.72.89 97.73 44.33 108.43 50.53-6.34 8.51-12.62 17.05-18.86 25.62-9.99-6.98-46.69-23.04-59.72-29.05-15.61-7.34-36.95-16.78-51.62-25.4-11.87 5.44-23.66 11.06-35.36 16.86-5.52 2.78-20.61 14.11-25.38 5.97 1.71-4.66 25.46-15.33 31.24-18.25z"/><path fill="#fce1a1" d="M1227.67 1531.98c31.48 15.64 63.86 29.34 94.89 44.84-2.78 3.28-5.09 6.46-8.6 8.88l-2.39-.56c-29.48-14.28-69.45-33.87-99.05-45.41 5.26-3.04 9.68-5.15 15.15-7.75"/><path fill="#0d2044" d="M1095.03 1495.27c45.16-2.79 45.75 44.77-3.8 54.64-44.07 6.11-46.46-46.44 3.8-54.64"/><path fill="#fce1a1" d="M1102.15 1524.33c-7.61 3.7-22.16 8.7-28.4.77-2.15-8.29 5.39-14.4 12.64-16.78 9.3-3.06 15.77-2.2 24.41 2.2 2.73 1.23 2.54 1.33 4.42 3.75 1.57 5.98-1.84 9.16-6.47 12.64-2.16-1.01-4.36-1.76-6.6-2.58"/><path fill="#0a1720" d="M1110.8 1510.52c2.73 1.23 2.54 1.33 4.42 3.75 1.57 5.98-1.84 9.16-6.47 12.64-2.16-1.01-4.36-1.76-6.6-2.58 6.85-4.96 7.26-5.5 8.65-13.81"/><path fill="#6b7782" d="M1108.75 1526.91c2.23-4.17 4.38-8.39 6.47-12.64 1.57 5.98-1.84 9.16-6.47 12.64"/><path fill="#bec2a6" d="M1068.88 1533.85c14.64 2.91 13.84 3.54 28.66 1.28l.75 1.13c-11.47 3.64-19.5 5.81-29.41-2.41"/><path fill="#0d2044" d="M1106.11 1552.36c41.58 1 37.62 46.36-13.55 54.54-48.43-2.4-30.62-50.35 13.55-54.54"/><path fill="#fce1a1" d="M1076.06 1579.67c8.4-13.42 40.2-29.77 40.72-5.98-.74 8.3-8.98 11.43-12.94 17.23l-.05 1.06 1.26.83c-11.58 4.06-21.95 6.15-30.86-3.73-.26-4.15-.45-5.95 1.87-9.41"/><path fill="#141d35" d="M1116.78 1573.69c-.74 8.3-8.98 11.43-12.94 17.23l-.05 1.06 1.26.83c-11.58 4.06-21.95 6.15-30.86-3.73-.26-4.15-.45-5.95 1.87-9.41 11.9 14.43 30.26 5.24 40.72-5.98"/><path fill="#a3a7a1" d="M1074.19 1589.08c12.23 6 16.46 5.14 29.6 2.9l1.26.83c-11.58 4.06-21.95 6.15-30.86-3.73"/><path fill="#162b53" d="m1119.88 1579.22 1.53.09c-3.03 5.96-9.89 11.69-16.36 13.5l-1.26-.83.05-1.06c7.14-2.13 10.82-6.54 16.04-11.7"/><path fill="#5b647a" d="M1119.88 1579.22c3.09-9.6-1.04-6.19 1.23-11.84 4.65 2.47 2.04 8.34.3 11.93z"/><path fill="#0d2044" d="M1016.62 1567.23c40.7-3.78 53.97 35.7 2.46 50.83-8.82 1.87-20.019 1.13-27.771-3.91a21.28 21.28 0 0 1-9.558-14.76c-3.088-20.37 18.549-29.4 34.869-32.16"/><path fill="#fce1a1" d="M1017.1 1578.17c6.72-.5 13.07-1.63 16.78 4.89-.08 9.69-11.39 13.94-19.13 16.2-7.04.34-15.09.91-18.395-6.19.752-9.46 13.135-12.89 20.745-14.9"/><path fill="#6b7782" d="m1039.86 1590.16 1.23.71c-9.1 16.17-32.73 23.58-47.729 12.04l-.007-1.42c19.406 7.2 33.726 7.05 46.506-11.33"/><path fill="#83989f" d="M1039.86 1590.16c.13-2.95-.41-3.67 1.13-5.34 1 2.29 1.3 2.85.1 6.05z"/><path fill="#162b53" d="M1248.89 1633.9c5.12 1.42 7.7 3.6 11.69 6.4 24.09 16.92 10.12 27.64-9.15 39.27-9.28 5.6-19.83 11.03-30.16 16.05-15.43 5.41-28.25-4.31-23.55-17.41 4.31-12 40.22-39.22 51.17-44.31"/><path fill="#fce1a1" d="M1246.34 1644.68c5.95.44 9.95 5.05 14.18 9.05-11.15 8.74-23.87 15.41-36.26 22.24-2.54 1.4-4.64 2.17-7.31 3.23-3.44-.44-2.04.26-4.48-1.82l-.1-2.2c4.41-8.04 25.62-23.75 33.97-30.5"/><path fill="#a3a7a1" d="M1203.84 1679.83c1.92 1.42 5.34 6.3 7 8.45-5.16-1.46-5.41-3.82-7-8.45"/><path fill="#0d2044" d="M1014.46 1516.15c41.69-4.68 51.58 40.31 3.78 48.73-14.38 1.09-32.926.78-36.664-17.1a19.78 19.78 0 0 1 3.03-15.11c6.527-9.72 18.934-14.07 29.854-16.52"/><path fill="#fce1a1" d="M1012.5 1527.15c2.17-.25 4.35-.37 6.53-.36 4.64.01 6.73.43 10.03 3.69 2.81 9.62-7.53 13.15-14.76 15.74-5.94.91-11.92.29-16.202-4.21-2.628-9.8 6.932-12.42 14.402-14.86"/><path fill="#6b7782" d="M1033.3 1529.43c16.58 10.85-10.96 31.98-34.895 22.85-1.742-1.62-1.092-.66-1.958-2.86 8.733 1.86 15.463 4.83 24.723 2.29 13.05-3.59 15.94-10.31 12.13-22.28"/><path fill="#99d8bc" d="M633.86 1227.84c-1.489 3.15-4.956 9.54-5.063 12.64 11.803 4.34 53.209-20.4 63.512-28.99 1.906 10.98 13.985 73.77 11.336 77.97-.452.71-.84 1.04-1.415 1.61l.415.99 2.317-.88c2.825 3.35 9.21 48.57 10.615 56.31 1.919 10.58 5.332 25.67 7.368 36.45-.85 2.86-.829 2.64-3.059 4.67-1.993 2.41-2.819 3.63-5.193 5.7l-.338.66c-.8.98-3.024 3.84-3.817 4.54l-2.141 2.41c-1.335 1.84-1.805 2.95-3.629 4.13-3.106 4.54-5.117 6.63-8.804 10.56-1.12 1.38-1.844 2.65-3.214 3.45-2.921 4.2-14.857 17.56-15.813 20.39l.629.78c-30.69 37.08-61.599 73.99-92.727 110.71-4.447 5.26-32.033 38.47-35.655 41.4-3.007 3.83-5.542 6.94-8.774 10.6-3.266 3.89-11.843 14.68-15.383 17.24-6.258 9.08-20.499 24.23-28.21 33.24-6.122 7.16-20.68 24.53-27.085 30.25l-2.033-.78c-23.618-18.58-93.737-87.1-108.877-111.69.613-2.62 2.24-2.9 5.129-4.98l1.89-1.6 1.503-.9 2.488-2.11 1.483-1.06 2.614-2.02 1.102-.47.574-3.13L356.32 1570c-41.262-51.53-67.271-90.92-96.739-150.13 13.832-8.2 33.954-17.45 48.809-24.73a5377 5377 0 0 0 69.879-34.92c2.314-1.11 4.766-2.54 7.039-3.78 2.95-.78 20.323-9.83 23.976-11.68l64.189-32.87 94.567-48.02c11.385-5.88 36.502-18.42 46.349-25.31 7.845-5.03 11.157-6.76 19.471-10.72"/><path fill="#1f6a81" d="m702.645 1292.06 2.317-.88c2.825 3.35 9.21 48.57 10.615 56.31 1.919 10.58 5.332 25.67 7.368 36.45-.85 2.86-.829 2.64-3.059 4.67-1.993 2.41-2.819 3.63-5.193 5.7l-.338.66c-.8.98-3.024 3.84-3.817 4.54l-2.141 2.41c-1.335 1.84-1.805 2.95-3.629 4.13-3.106 4.54-5.117 6.63-8.804 10.56-1.12 1.38-1.844 2.65-3.214 3.45-2.921 4.2-14.857 17.56-15.813 20.39l.629.78c-30.69 37.08-61.599 73.99-92.727 110.71-4.447 5.26-32.033 38.47-35.655 41.4-3.007 3.83-5.542 6.94-8.774 10.6-3.266 3.89-11.843 14.68-15.383 17.24-6.258 9.08-20.499 24.23-28.21 33.24-6.122 7.16-20.68 24.53-27.085 30.25l-2.033-.78c-23.618-18.58-93.737-87.1-108.877-111.69.613-2.62 2.24-2.9 5.129-4.98l1.89-1.6 1.503-.9 2.488-2.11 1.483-1.06 2.614-2.02 1.102-.47.574-3.13c10.204-9.14 27.932-21.94 39.139-30.62a5983 5983 0 0 0 66.096-52.08c5.084-4.13 9.379-7.78 14.967-11.23 4.253-5.65 50.699-41 59.325-47.76 5.078-4.88 17.943-14.75 23.897-19.57 16.74-14.09 45.458-39.68 62.779-51.69 1.33-2.16 48.465-42.02 51.015-43.32 3.577-3.93 5.212-5.28 9.407-8.59z"/><path fill="#175d78" d="M480.84 1473.23c-.319.89-.405 1.9-.956 2.66-3.647 5.06-97.022 78.75-104.853 83.17l.574-3.13c10.204-9.14 27.932-21.94 39.139-30.62a5983 5983 0 0 0 66.096-52.08m98.189-78.56c16.74-14.09 45.458-39.68 62.779-51.69-4.885 7.31-56.548 51.51-62.779 51.69m-111.33 289.22c6.047-7.83 52.03-59.47 57.328-62.71-6.258 9.08-20.499 24.23-28.21 33.24-6.122 7.16-20.68 24.53-27.085 30.25zm87.433-269.65.602 1.49c-17.369 15.21-39.568 33.21-58.371 46.4l-1.556-.13c4.253-5.65 50.699-41 59.325-47.76m-14.722 189.7c-.084-6.57 3.259-8.64 8.774-10.6-3.007 3.83-5.542 6.94-8.774 10.6m161.82-312.87.415.99c-2.78 5.07-4.281 5.6-9.822 7.6 3.577-3.93 5.212-5.28 9.407-8.59m6.167 110.85c-1.335 1.84-1.805 2.95-3.629 4.13 1.006-2.52 1.394-2.43 3.629-4.13m-15.647 18.14c1.519-2.83.49-1.72 3.214-3.45-1.12 1.38-1.844 2.65-3.214 3.45m27.136-31.45c-1.993 2.41-2.819 3.63-5.193 5.7 1.402-2.72 2.905-3.71 5.193-5.7m-9.348 10.9c.813-2.52 1.537-2.48 3.817-4.54-.8.98-3.024 3.84-3.817 4.54"/><path fill="#1f6a81" d="M1426.21 262.533c34.85 18.325 68.76 38.308 100.33 61.94 5.92 4.434 42.94 30.782 44 34.863l-3.09 4.135.91.718 3.48-2.569 1.21-.994c23.09 11.656 96.94 89.031 112.55 111.437-1.99 2.427-3.98 3.937-4.34 6.529-4.17 3.666-9.47 8.474-14.07 11.457-6.41 8.052-46.12 39.908-55.98 47.645-16.57 14.088-35.39 30.876-52.41 44.074-21.2 18.711-45.39 36.904-66.78 56.024-5.46 4.891-41.05 35.201-44.82 37.245-4.45 5.249-33.41 28.483-40.08 33.992l-1.34-1.724c-2.21 2.09-4.22 4.167-6.66 5.973l-8.01 6.539c-1.81 1.75-2.85 2.873-4.89 4.38l-1.85 1.232c-.31.29-2.53 2.441-2.82 2.604l-3.38 2.812c-1.97 1.797-3.63 3.488-5.9 4.884l-2.19 1.644-3.89 3.446c-.47.377-2.66 2.223-3.1 2.461l-11.9 10.44a121.56 121.56 0 0 0-60.92 20.126c-5.03 3.366-15.04 10.888-19.74 13.459l-2.39 3.766-.59-.704c.3-6.169 1.64-12.25 2.78-18.33 1.91-2.019 3.6-1.74 6.93-2.48a299 299 0 0 0 10.84-2.195c37.88-8.792 61.89-69.28 58.34-104.369-.25-2.401-2.16-3.682-3.98-4.684-8.42.449-24.97 11.98-34.15 15.676l-1.74.585c.04-2.59 2.5-5.397 4.16-7.952l4.98-9.868c8.95-20.218 12.11-42.062 10.36-64.065-.55-6.918.05-15.31-7.7-17.459-6.37 1.678-23.14 16.941-29.05 21.933 14.95-35.531 13.63-60.704.84-96.709 2.89-5.234 5.75-10.484 8.59-15.75 4.33-6.22 11.72-19.892 15.68-26.779l33.55-59.076c23.57-41.72 49.69-85.254 72.4-126.958z"/><path fill="#99d8bc" d="M1426.21 262.533c34.85 18.325 68.76 38.308 100.33 61.94 5.92 4.434 42.94 30.782 44 34.863l-3.09 4.135c-6.1 7.273-15.21 17.715-20.5 25.221-5.23 5.377-13.69 16.05-18.35 22.218l-47.23 56.267c-4.41 5.22-20.84 24.128-23.35 28.648-5.19 4.478-29.89 35.145-35.72 42.038l-46.81 55.35c-3.43 4.08-16.23 18.719-18.52 22.617-3.91 3.175-15.15 16.67-17.94 21.012-7.3 5.938-14.87 17.598-21.07 23.384l-2.25-3.476c8.95-20.218 12.11-42.062 10.36-64.065-.55-6.918.05-15.31-7.7-17.459-6.37 1.678-23.14 16.941-29.05 21.933 14.95-35.531 13.63-60.704.84-96.709 2.89-5.234 5.75-10.484 8.59-15.75 4.33-6.22 11.72-19.892 15.68-26.779l33.55-59.076c23.57-41.72 49.69-85.254 72.4-126.958z"/><path fill="#175d78" d="M1528.6 410.91c-.57 5.742-62.71 80.493-70.58 84.915 2.51-4.52 18.94-23.428 23.35-28.648zm30.2 170.858c-.68-.67-.34-.2-.64-1.612 10.37-9.011 21.05-17.318 31.18-26.549 6.52-5.948 12.8-11.711 20.1-16.714l1.77.801c-16.57 14.088-35.39 30.876-52.41 44.074m-153.02 125.537c5.12-6.149 31.76-25.922 39.78-32.44l1.64.172c-4.45 5.249-33.41 28.483-40.08 33.992z"/><path fill="#9fcdb0" d="M1277.26 769.557c-3.36 6.69-4.49 10.539-6.73 17.748l-2.39 3.766-.59-.704c.3-6.169 1.64-12.25 2.78-18.33 1.91-2.019 3.6-1.74 6.93-2.48"/><path fill="#175d78" d="M1571.84 361.62c-5.14 5.796-19.81 26.725-24.89 27.072 5.29-7.506 14.4-17.948 20.5-25.221l.91.718zm-232.81 275.222c2.79-4.342 14.03-17.837 17.94-21.012-.28 5.584-13.03 17.67-17.94 21.012m328.16-146.793c3.36-5.428 13.13-13.639 18.41-17.986-1.99 2.427-3.98 3.937-4.34 6.529-4.17 3.666-9.47 8.474-14.07 11.457"/><path fill="#9fcdb0" d="m1315.71 656.75 2.25 3.476c-2.05 2.529-4.57 5.483-6.47 8.053l-.76-1.661z"/><path fill="#2e8898" d="m1308.31 673.985-1.74.585c.04-2.59 2.5-5.397 4.16-7.952l.76 1.661z"/><path fill="#175d78" d="M1405.78 707.305c-2.21 2.09-4.22 4.167-6.66 5.973 2.72-3.413 2.96-3.541 6.66-5.973m-27.61 23.54c-1.97 1.797-3.63 3.488-5.9 4.884 2.2-2.378 2.92-3.487 5.9-4.884m12.94-11.028c-1.81 1.75-2.85 2.873-4.89 4.38 1.97-2.5 2-2.908 4.89-4.38"/><path fill="#99d8bc" d="M677.566 1441.23c12.771-14.92 34.52-38.86 45.626-54.19 8.491 27.48 18.111 65.69 27.199 91.42 11.619-3.76 25.29-6.59 36.06-10.47a3297 3297 0 0 1-15.237 31.31l1.326.58c6.221-10.46 10.942-22.46 16.995-32.55a6660 6660 0 0 1 101.631-30.3c-15.835 44.52-27.531 94.38-41.298 139.93a16592 16592 0 0 1-83.962 268.78 838 838 0 0 1-145.229-59.98c2.016-3.65 4.892-7.73 4.733-11.76l-6.236 10.46c-43.645-23.78-84.856-48.39-124.383-78.77-6.404-4.93-20.445-14.94-25.059-21.02 6.405-5.72 20.963-23.09 27.085-30.25 7.711-9.01 21.952-24.16 28.21-33.24 3.54-2.56 12.117-13.35 15.383-17.24 3.232-3.66 5.767-6.77 8.774-10.6 3.622-2.93 31.208-36.14 35.655-41.4 31.128-36.72 62.037-73.63 92.727-110.71"/><path fill="#1f6a81" d="M789.535 1467.33a6660 6660 0 0 1 101.631-30.3c-15.835 44.52-27.531 94.38-41.298 139.93a16592 16592 0 0 1-83.962 268.78 838 838 0 0 1-145.229-59.98c2.016-3.65 4.892-7.73 4.733-11.76 1.014-3.15 6.996-13.09 8.794-16.09a391 391 0 0 1 10.344-18.23c.536-2.11 11.811-22.99 13.721-26.57a4125 4125 0 0 1 39.018-72.16c1.682-3.54 4.285-7.78 6.275-11.26.584-2.19 10.362-20.67 11.826-23.43a5815 5815 0 0 1 27.931-52.29c4.648-9.19 9.19-18.29 14.213-27.29 2.426-6.69 10.14-20.97 13.682-27.38l1.326.58c6.221-10.46 10.942-22.46 16.995-32.55"/><path fill="#175d78" d="M757.532 1526.68c.306 7.7-8.386 19.23-12.18 26.27-.408.75-1.253.79-2.033 1.02 4.648-9.19 9.19-18.29 14.213-27.29m-112.984 213c.375 4.7-6.037 17.15-10.344 18.23a391 391 0 0 1 10.344-18.23m59.014-109.99c.557 4.67-1.441 9.92-6.275 11.26 1.682-3.54 4.285-7.78 6.275-11.26"/><path fill="#99d8bc" d="M893.707 1436.44c25.312-8.01 59.361-18.66 84.678-25-.589 16.86-1.55 35.11-1.276 51.86-.617 8.54-1.056 20.17-1.006 28.85-15.256 14.98-40.873 35.57-57.84 50.84-14.779 13.3-38.505 35.84-52.912 47.25-.347 15.32-.792 34.17-3.606 49.23l95.263 43.51.16 12.72c1.431-2.34-.861-7.15 1.285-10.81l1.573 1.05 1.993-.94c15.769 5.89 45.761 21.22 62.071 28.82 15.9 7.39 31.77 14.86 47.59 22.42 4.59 2.19 24.57 10.78 26.18 14.25l.2 4.44c-.77 16.6 4.45 52.39 5.54 70.45.45 7.38 4.13 43.48 5.54 49.36-.26 3.74.55 2.41-1.48 4.68-39.51 6.16-121.17 3.92-161.787 1.38l1.327-10.78-2.238-.01c-.173 3.14-.731 7.24-1.069 10.45a965 965 0 0 1-175.605-34.61c6.499-23.31 15.896-49.83 23.226-73.41l53.363-172.71a5023 5023 0 0 0 27.515-94.57c6.732-23.6 12.65-45.73 21.315-68.72"/><path fill="#1f6a81" d="M957.168 1695.7c1.431-2.34-.861-7.15 1.285-10.81l1.573 1.05 1.993-.94c15.769 5.89 45.761 21.22 62.071 28.82 15.9 7.39 31.77 14.86 47.59 22.42 4.59 2.19 24.57 10.78 26.18 14.25l.2 4.44c-.77 16.6 4.45 52.39 5.54 70.45.45 7.38 4.13 43.48 5.54 49.36-.26 3.74.55 2.41-1.48 4.68-39.51 6.16-121.17 3.92-161.787 1.38l1.327-10.78-2.238-.01c.097-7.04.941-14.7 1.417-21.76 3.425-50.84 7.736-101.69 10.789-152.55"/><path fill="#103041" d="M957.168 1695.7c1.431-2.34-.861-7.15 1.285-10.81l1.573 1.05c.545 11.43-2.648 37.74-3.482 50.79l-9.344 133.29-2.238-.01c.097-7.04.941-14.7 1.417-21.76 3.425-50.84 7.736-101.69 10.789-152.55"/><path fill="#fefef5" d="M1374.48 918.059c5.3 2.03 11.21 4.85 16.37 7.302 34.5 16.376 69.42 31.815 104.12 47.747a15225 15225 0 0 1 172.21 81.422c30.35 14.22 60.58 28.7 90.68 43.43-57.06 31.78-112.86 66.74-170.48 97.35-16.94-9.34-45.65-21.23-64.56-30.49L1297 1055.18c-29.25-14.46-64.89-30.09-92.9-46.26 15.2-8.44 34.66-17.689 50.68-26.166a6435 6435 0 0 0 119.7-64.695m399.3 192.861c2.73 6.65.49 300.11.88 328.94.03 2.59-.85 8.12-1.69 10.8-.93 2.98-3.33 8.39-5.94 10.28-16.04 11.66-36.84 22.41-54.11 31.91l-115.47 62.62c-2.9-4.87-1.88-308.4-1.69-343.03 11.69-5.79 23.22-12.88 34.65-19.26 48.06-26.83 94.97-56.05 143.37-82.26"/><path fill="#99d8bc" d="M432.877 819.389a17833 17833 0 0 1 226.025 66.86c37.989 11.446 79.374 25.071 117.225 35.522 5.61 19.269 11.733 45.27 17.835 63.513l-.285 2.397c3.707 10.61 7.375 24.329 10.226 35.309l-.19 1.82c4.756 8.27 10.47 46.71-2.138 51.63-23.213 9.06-49.889 12.95-73.987 19.71-19.824 4.67-46.305 12.36-64.955 15.63-12.99-19.35-28.365-36.43-50.158-45.93-3.044 6.29-4.636 10.34-7.011 16.94-7-12.48-22.381-32.38-36.46-36.21-11.034-3-6.117 13.93-15.116-9.55a2235 2235 0 0 0 31.699-1.22c-9.854-2.39-18.644.66-29.852-.93-6.999-2.62-21.275-25.03-30.16-29.44-2.484-1.23-4.437-.22-7.273.61l-1.211.36c-1.765-2.96-3.089-10.041-4.077-13.644-4.344-15.85-8.457-23.351-19.17-35.464-.78-.457-2.05-1.857-2.768-2.569-7.317-1.594-9.167-1.632-13.107 4.895l-.944.323c.966-21.506.004-46.122-15.285-62.862-7.241 4.258-10.929 6.786-17.236 12.534 3.338-12.78 15.34-74.369-2.417-78.689-5.506 1.003-11.308 4.721-16.257 7.62 2.26-6.04 5.109-13.122 7.047-19.165"/><path fill="#1f6a81" d="M493.844 957.302c47.852 4.931 95.857 9.185 143.675 14.075 51.87 5.305 104.071 12.78 156.158 16.304 3.707 10.61 7.375 24.329 10.226 35.309l-.19 1.82c4.756 8.27 10.47 46.71-2.138 51.63-23.213 9.06-49.889 12.95-73.987 19.71-19.824 4.67-46.305 12.36-64.955 15.63-12.99-19.35-28.365-36.43-50.158-45.93-3.044 6.29-4.636 10.34-7.011 16.94-7-12.48-22.381-32.38-36.46-36.21-11.034-3-6.117 13.93-15.116-9.55a2235 2235 0 0 0 31.699-1.22c-9.854-2.39-18.644.66-29.852-.93-6.999-2.62-21.275-25.03-30.16-29.44-2.484-1.23-4.437-.22-7.273.61l-1.211.36c-1.765-2.96-3.089-10.041-4.077-13.644-4.344-15.85-8.457-23.351-19.17-35.464"/><path fill="#99d8bc" d="M803.713 1024.81c4.756 8.27 10.47 46.71-2.138 51.63-23.213 9.06-49.889 12.95-73.987 19.71-19.824 4.67-46.305 12.36-64.955 15.63-12.99-19.35-28.365-36.43-50.158-45.93-3.044 6.29-4.636 10.34-7.011 16.94-7-12.48-22.381-32.38-36.46-36.21-11.034-3-6.117 13.93-15.116-9.55a2235 2235 0 0 0 31.699-1.22c9.441.62 53.776-2.86 65.883-3.53A5691 5691 0 0 1 784 1026z"/><path fill="#103041" d="M763.99 1024.77c4.325-.44 7.319-.69 11.658-.69l8.351-.23.001 2.15a5691 5691 0 0 0-132.53 6.28c-12.107.67-56.442 4.15-65.883 3.53-9.854-2.39-18.644.66-29.852-.93 17.352-1.19 33.97-.75 51.608-2.26 1.229-.3 4.486-.5 5.907-.63l7.878-.11c4.323-.79 5.142-.86 9.519-.78 40.933-1.88 93.906-6.53 133.343-6.33"/><path fill="#175d78" d="M763.99 1024.77c4.325-.44 7.319-.69 11.658-.69-4.661 1.14-6.87.83-11.658.69m-142.862 7.11c4.323-.79 5.142-.86 9.519-.78-4.198.82-5.236.89-9.519.78m-13.785.74c1.229-.3 4.486-.5 5.907-.63-2.626.51-3.279.89-5.907.63"/><path fill="#12434f" d="M783.999 1023.85c5.636.09 14.045-.58 19.904-.86l-.19 1.82L784 1026z"/><path fill="#0a1720" d="M491.076 954.733a11729 11729 0 0 1 167.265 16.745c42.583 4.846 93.06 11.506 135.621 13.806l-.285 2.397c-52.087-3.524-104.288-10.999-156.158-16.304-47.818-4.89-95.823-9.144-143.675-14.075-.78-.457-2.05-1.857-2.768-2.569"/><path fill="#1f6a81" d="M609.86 1172.61c6.454 1.77 14.585 4.24 20.983 5.62-33.569 11.39-38.078 19.52-56.2 50.54-1.378 2.36-1.927 4.32-2.345 7.03 5.521 13.51 33.46.05 42.667.22l-.576 2.54c-9.847 6.89-34.964 19.43-46.349 25.31l-94.567 48.02-64.189 32.87c-3.653 1.85-21.026 10.9-23.976 11.68-2.273 1.24-4.725 2.67-7.039 3.78l-.096-1.62c-5.554 2.58-11.179 5.53-16.651 8.31-34.32 17.43-69.06 33.87-103.301 51.46a965 965 0 0 1-56.811-140.18l194.157-60.42c11.779-3.73 93.276-27.97 98.373-33.29 1.05-1.32 1.223-1.07 2.98-1.9l3.911-.06c-.452 7.73-12.263 11.81-8.74 19.34 8.722 6.86 28.756 7.98 39.559 6.65 25.48-3.12 57.737-20.7 78.21-35.9"/><path fill="#175d78" d="M378.173 1358.6c2.576-3.03 3.517-2.43 7.135-2.16-2.273 1.24-4.725 2.67-7.039 3.78z"/><path fill="#e99972" d="m1006.6 1062.16 1.21-.15a4150 4150 0 0 0 51.6 166.77c-18.48 6.47-37.39 12.48-56.23 17.8-79.605 22.48-159.24 48.74-239.302 69.21-4.341-18.59-6.809-40.74-10.577-59.8-8.504-43.02-17.217-87.99-23.107-131.42 10.425-2.57 41.95-13.62 48.673-14.36l.797 1.5c-5.739 9.75-41.431 8.08-45.1 20.31.681 3.99-.204 2.42 2.214 5.11 8.97-.13 28.222-6.22 37.526-8.87-1.563 20.61 3.567 32.74 24.924 39.78 38.549 12.71 83.168.31 118.73-15.93 16.492-7.53 36.748-21.95 43.036-39.69 3.917-11.45-2.946-21.67-8.196-32.17 13.175-4.5 44.142-11.25 53.802-18.09"/><path fill="#162b53" d="M1011.98 1162.19c2.69-.44 2.66-.38 5.39-.04 8.04 5.56 18.86 51.17 21.14 62.46-12.3 6.5-62.661 19.78-78.721 24.45a9555 9555 0 0 0-155.457 46.57c-2.681.76-7.16 2.02-8.808-1.86-4.789-11.26-7.461-23.87-10.821-35.68-2.148-7.56-6.306-20.17-5.347-27.62 6.562-4.78 70.34-22.3 80.984-25.04 50.793-13.09 101.113-29.73 151.64-43.24"/><path fill="#fce1a1" d="m1009.8 1176.14 1.1.09c2.58 2.09 11.23 34.81 12.93 40.99-72.28 22.24-145.042 41.56-217.55 65.07-3.052-3.78-11.414-36.81-13.186-43.42 22.658-5.33 49.452-13.77 72.376-20.24a4729 4729 0 0 0 144.33-42.49"/><path fill="#162b53" d="m1017.66 1131.04 3.26.25c3.02 2.92 4.28 4.69 3.41 8.95-3.91 4.5-45.338 15.03-53.637 17.45a8838 8838 0 0 1-213.008 60.76c-1.708.31-2.909.25-4.651.29-3.883-3.07-4.078-4.15-3.122-8.63 3.757-4.79 35.276-12.44 43.744-14.84l79.513-22.23c47.866-13.33 96.221-28.43 144.491-42"/><path fill="#1f6a81" d="M1280.24 201.006c11.99 3.212 29.53 10.166 41.36 14.495 35.82 13.107 69.26 28.004 102.9 45.958-1.54 3.023-3.02 5.649-4.72 8.589l.6 1.839c-22.71 41.704-48.83 85.238-72.4 126.958l-33.55 59.076c-3.96 6.887-11.35 20.559-15.68 26.779l-1.35-.526c-3.05 5.082-5.26 9.001-7.93 14.304-20.75 11.448-34.38 31.123-43.19 52.862l-1.34-1.801c8.02-20.588 10.7-27.525 8.2-50.26-2.07-18.734-27.98-59.34-42.08-69.309-3.25 7.918-4.41 12.865-6.23 21.131-2.96 11.821-4.51 26.824-7.49 37.272-2.28-6.07-5.69-14.44-7.3-20.561l1.56-4.151c4.44-3.51 14.05-34.232 16.13-41.216 22.12-74.214 49.67-147.593 72.51-221.439"/><path fill="#fce1a1" d="m1110.58 1258.07 1.17.31c4.42 6.53 26.68 72.51 30.31 83.64a22180 22180 0 0 0-372.205 110.15l-4.671 1.24c-.569-.32-1.138-.65-1.707-.98-7.445-21.61-18.518-63.35-25.364-83.49a5945 5945 0 0 0 120.004-34.61 12464 12464 0 0 0 252.463-76.26"/><path fill="#1f6a81" d="M1826.01 950.995c14.88-1.097 40.23-3.743 54.82-6.211 2.85 19.857 5.25 137.496-.21 155.656-2.41.5-2.97.65-5.41.69l-.49 1.25c-24.44-1.67-48.9-3.2-73.37-4.58l-5.26.17-1.54-10.7c-18.16-6.46-55.53-24.14-73.96-32.75l-102.87-47.82c-9.94-4.61-52.16-21.981-57.73-26.866 13.05-1.831 26.49-4.044 39.55-5.398 7.96 1.726 59.6-5.241 70.96-6.747 46.26-6.136 92.56-9.63 138.86-14.887 2.79-.911 2.17-.602 5.29-.581l4.35-.298c2.77-1.065 3.96-.798 7.01-.928"/><path fill="#12434f" d="M1801.35 1097.8c7.37-2.41 66.33.66 73.86 3.33l-.49 1.25c-24.44-1.67-48.9-3.2-73.37-4.58"/><path fill="#175d78" d="M1809.36 952.802c2.79-.911 2.17-.602 5.29-.581-2.91.653-2.54.928-5.29.581m9.64-.879c2.77-1.065 3.96-.798 7.01-.928-2.11.36-4.98 1.019-7.01.928"/><path fill="#fefef5" d="M1227.8 1419.64c7.86 2.81 21.3 9.81 29.33 13.67 17.81 8.59 35.66 17.08 53.55 25.48l145.86 67.79c36.86 17.23 76.94 36.87 114.89 51.41-15.16 16.49-29.39 35.21-44.68 52.25-53.96-27.56-109.67-52.49-164.59-78.06l-179.1-84.51c12.98-15.73 30.45-33.12 44.74-48.03"/><path fill="#1f6a81" d="M423.938 703.446c13.298 7.566 23.947 16.357 36.528 24.236a1042 1042 0 0 0 81.291 45.016c33.571 16.67 69.622 28.486 104.03 43.289 18.733 8.059 37.787 23.315 55.997 31.817 44.864 20.946 56.509 22.817 72.748 71.01-38.514-12.652-79.777-24.338-118.76-36.036a19765 19765 0 0 0-222.186-65.64c1.998-8.995 7.156-40.215-6.216-43.821-3.251-.877-16.166 3.954-20.427 5.401 6.453-10.461 35.266-58.226 16.037-72.372-.872-.641-6.227-.882-7.765-.967 4.058-.491 4.986-.487 8.723-1.933"/><path fill="#99d8bc" d="M760.956 203.637c46.689-15.24 92.312-24.753 140.942-31.567 9.358-1.311 28.788-4.577 37.578-4.037 2.106 1.764 1.883 5.851 2.319 9.316l3.948 61.645c.671 11.606 1.051 28.867 2.561 39.76-.584 5.753-4.93 7.332-9.569 11.085-6.033 4.88-10.09 8.806-14.892 14.889-2.505-8.783-5.692-15.737-13.665-20.991-30.085-19.824-93.569-15.15-127.845-10.295-7.245-20.952-15.796-48.573-21.377-69.805"/><path fill="#fce1a1" d="M978.699 291.3c37.501-2.277 53.971 26.642 58.791 59.183 15.79 106.634-53.994 242.778-112.965 326.595 4.587-16.287 8.504-33.45 12.384-49.841 1.777-7.508 4.658-32.416 7.584-37.565 5.083-8.944 12.765-19.498 18.385-29.591 32.261-55.862 51.022-129.627 49.262-194.253-.44-16.035-8.29-53.913-30.558-49.658-30.706 5.868-33.968 53.312-37.786 77.957-1.596 10.304-.464 37.389-6.126 45.127l-1.626-.081c-4.187-5.743-13.427-66.122-16.649-79.279 11.157-35.216 17.53-61.987 59.304-68.594"/><path fill="#99d8bc" d="M1801.35 1097.8c24.47 1.38 48.93 2.91 73.37 4.58l5.24.99c1.9 4.35-.76 20.9-1.39 26.14-6.04 50.68-16.59 104.61-32.3 153.25-16.29-3.75-34.37-9.43-50.32-14.44l-.2-101.19c-.09-20.64-.98-49.13.34-69.16zm-701.87 656.64.79-2.69c8.39-.51 116.09 56.6 133.89 61.62 5.87 1.65 24.07 12.39 31.93 14.57l1.8 1.28a632 632 0 0 1 3.7 19.7l-3.05.14c-20.33 10.62-128.87 27.95-155.12 29.7l-1.99-.95-1.11-3.2-1.18.13c-1.41-5.88-5.09-41.98-5.54-49.36-1.09-18.06-6.31-53.85-5.54-70.45z"/><path fill="#103041" d="m1098.06 1754.93 1.42-.49c2.55 15.31 3.61 40.83 5.15 57.21 1.26 13.42 6.26 51.38 5.69 62.96l-1.18.13c-1.41-5.88-5.09-41.98-5.54-49.36-1.09-18.06-6.31-53.85-5.54-70.45"/><path fill="#0c2021" d="m1266.09 1827.94 1.8 1.28a632 632 0 0 1 3.7 19.7l-3.05.14c-1.05-6.6-2.59-14.58-2.45-21.12"/><path fill="#fefef5" d="m1748.18 1495.05.6 1.35c-7.9 15.14-23.85 34.4-34.02 48.24-51.48 70.09-102.69 109.36-173.28 157.85-.76-4.17-.48-49.69-.78-58.24 6.61-9.01 50.85-61.47 57.42-65.75 43.45-28.29 106.75-55.18 150.06-83.45"/><path fill="#1f6a81" d="M758.127 204.242c2.454 3.5 19.502 61.172 22.23 69.594-64.984 11.384-110.72 19.831-174.109 40.644l-.887.332c-4.75-1.309-15.853-25.24-21.144-32.617 52.423-33.399 115.483-57.632 173.91-77.953"/><path fill="#fce1a1" d="M393.533 520.436c6.784.847 16.401 5.088 22.667 7.739-9.659 11.587-28.404 39.973-28.155 55.42.852 52.744 94.746 101.507 134.252 128.615 7.983 5.477 30.96 16.378 35.207 20.278 13.284 12.193 36.272 34.54 47.552 47.31l-.584.741-4.069-1.639c-15.091-7.489-33.689-14.255-49.763-21.875a787.6 787.6 0 0 1-114.582-66.73c-23.822-16.89-74.955-53.765-79.771-83.475-3.603-22.226 23.905-67.591 37.246-86.384"/><path fill="#9fcdb0" d="M1097.52 1108.18c19.64 12.62 41.51 20.94 63.8 27.49-.5 61.55 1.1 123.66.53 184.94.13 5.2.69 13.65-.39 18.36-1.96-2.38-1.28-1.48-2.1-4.78-12.12-30.23-19.71-64.63-31.29-94.08-16.15-41.05-32.89-79.19-48.09-121 5.92-3.42 11.76-7.25 17.54-10.93"/><path fill="#99d8bc" d="M1159.36 1334.19c2.83-4.65.47-15.33.7-21.64.64 2.68 1.23 5.36 1.79 8.06.13 5.2.69 13.65-.39 18.36-1.96-2.38-1.28-1.48-2.1-4.78"/><path fill="#fefef5" d="M884.491 1609.32c11.632 4.67 31.543 14.86 43.716 20.46a6368 6368 0 0 1 112.483 52.64l291.29 137.22c.28 5.94.4 10.97.33 16.92-13.13-5.61-28.34-13.7-41.51-19.95l-78.89-36.93-191.98-89.62c-40.053-18.96-97.8-48.48-138.028-63.04q1.245-8.85 2.589-17.7"/><path fill="#99d8bc" d="M428.507 534.131c9.671 5.558 13.922 8.273 24.914 10.392 17.362 39.598 34.321 79.674 57.184 116.524 8.236 13.276 17.08 26.063 25.055 39.531l-17.733-10.7c-28.881-17.923-102.461-62.683-113.477-98.467-4.373-14.205 15.726-45.174 24.057-57.28"/><path fill="#1f6a81" d="M958.068 450.486c-.046-25.501.511-48.6 4.949-73.8 3.374-19.155 3.866-34.868 21.952-45.927 19.381 30.237 7.887 86.65 1.217 120.856-2.454 12.588-15.378 61.766-22.322 70.155-.46 1.771-.513 1.741-1.273 3.408-.883-2.197-1.246-4.026-1.787-6.309.076 18.62-10.808 30.644-19.788 48.144.353-33.34.986-76.129-4.108-109.27 10.015-5.25 11.421-6.262 17.767-15.576.075 4.221.173 6.479.798 10.641.249-1.182.606-1.854 1.062-2.982z"/><path fill="#99d8bc" d="M954.675 442.167c.075 4.221.173 6.479.798 10.641 1.939 18.109 2.953 50.502 5.331 66.061.076 18.62-10.808 30.644-19.788 48.144.353-33.34.986-76.129-4.108-109.27 10.015-5.25 11.421-6.262 17.767-15.576"/><path fill="#0a1720" d="M955.473 452.808c.249-1.182.606-1.854 1.062-2.982l1.533.66c2.066 21.963 5.191 49.668 5.796 71.284-.46 1.771-.513 1.741-1.273 3.408-.883-2.197-1.246-4.026-1.787-6.309-2.378-15.559-3.392-47.952-5.331-66.061"/><path fill="#fce1a1" d="M366.728 472.377c20.806-3.505 36.848 4.202 55.181 6.848l.873.117c8.569 15.643 15.237 28.633 22.022 45.127-25.362-13.187-107.135-54.072-102.199 4.712 1.653 11.999 8.293 25.103 13.686 35.81-5.3 12.172-8.912 19.131-9.976 32.478-30.631-41.872-54.23-115.49 20.413-125.092"/><path fill="#e99972" d="m753.775 1333.77 241.845-71.44c35.28-10.39 72.28-20.55 107.21-31.89l5.02 12.69c-52.4 16.96-110.412 33.03-163.64 48.74a12261 12261 0 0 1-189.661 55.91c-.121-5-.359-9.05-.774-14.01"/><path fill="#1f6a81" d="m1067.45 1384.18 1.98.04c4.26 10.73 8.36 21.52 12.28 32.38l-2.1.25c-4.85-.84-9.68-1.74-14.51-2.69-20.15 13.32-44.28 39.09-63.1 55.36-7.206 6.23-17.848 18.07-25.897 22.63-.05-8.68.389-20.31 1.006-28.85-.274-16.75.687-35 1.276-51.86l2.68-.68c7.38-5 72.485-21.42 86.385-26.58"/><path fill="#12434f" d="m978.385 1411.44 2.68-.68c-.486 7.44-2.024 49.38-3.956 52.54-.274-16.75.687-35 1.276-51.86"/><path fill="#0a1720" d="m1067.45 1384.18 1.98.04c4.26 10.73 8.36 21.52 12.28 32.38l-2.1.25c-3.53-9.68-9.6-23.17-12.16-32.67"/><path fill="#e99972" d="M1011.46 1042.06c5.25-1.6 10.96-3.19 16.07-5.1 19.34 47.02 36.07 96.05 55.21 143.27 5.06 12.48 10.88 25.46 15.56 37.96-8.94 2.42-17.83 5.04-26.65 7.86a8178 8178 0 0 0-40.79-126.9c-4.63-14.42-12.89-36.17-16.51-49.72-4.81-1.28-3.13-.98-8.48.52l-.18-1.35 4.28-4.31z"/><path fill="#141d35" d="m1009.97 1044.29 1.49-2.23 2.89 7.37c-4.81-1.28-3.13-.98-8.48.52l-.18-1.35z"/><path fill="#fefef5" d="M1167.01 1389.29c9.2 2.4 43.03 20.95 52.18 25.93-10.96 14.73-30.89 31.54-44.4 48.9-6.94-1.35-43.48-20.34-51.31-24.4 15.51-22.1 24.41-31.76 43.53-50.43"/><path fill="url(#c)" d="M1519.95 1662.84c2.95 3.77 2.01 34.84 1.98 41.22-6.34 5.05-12.98 9.19-19.61 13.78-50.66 35.09-102.91 69.24-152.8 105.35l-1.56-.16c.35-2.18 2.21-4.18 3.87-5.66 56.73-50.63 113.89-101.29 168.12-154.53"/><path fill="#fce1a1" d="m698.079 1138.86 14.329-4.14c11.461 46.01 18.004 95.95 28.104 142.4 2.893 13.3 7.95 45.99 13.263 56.65.415 4.96.653 9.01.774 14.01-6.48 1.91-12.397 3.39-18.966 4.96-4.721-16.8-7.062-42.47-10.554-60.24-9.977-50.74-15.914-103.28-26.95-153.64"/><path fill="#1f6a81" d="M1795.99 1271.64c11.78 2.15 37.11 9.88 49.83 13.32-9.95 30.45-19.79 60.91-32.88 90.2-5.09 11.27-9.76 22.03-15.85 32.81-1.08-45.43-1.45-90.88-1.1-136.33"/><path fill="#fce1a1" d="M1255.8 687.106c1.94.482 4.65.679 5.41 2.073 2.9 5.319 2.6 18.339 2.63 24.438a465.6 465.6 0 0 1-18.86 134.56c-28.9 97.249-91.81 192.243-176.09 249.983l-3.14-9.24c25.86-17.27 64.7-51.81 84.26-75.8 40.67-49.859 77.7-122.6 93.57-185.05 7.91-26.364 13.94-68.513 15.04-95.849.4-9.938-1.9-34.463-2.82-45.115"/><path fill="#99d8bc" d="M450.388 381.247c38.106-34.384 88.508-72.746 133.226-98.019 5.695 10.797 11.508 22.353 17.815 32.746-41.886 13.997-113.179 41.099-149.121 66.434zm416.231 606.708c10.448 5.335 25.437 10.509 36.839 15.525 10.772 4 27.53 10.95 37.546 16.39 4.98 1.05 11.678 3.83 15.43 7.35l.027 2c-2.41.69-3.041.63-5.575.77 4.546.98 9.973 1.5 13.322 4.31 4.886 1.79 13.65 3.03 19.054 3.97-24.916 4.43-47.812 10.66-73.276 13.12-17.654-8.43-20.597-12.04-29.544-29.62l-.41-1.98c-5.406-7.91-10.094-22.428-13.413-31.835"/><path fill="#175d78" d="M866.619 987.955c10.448 5.335 25.437 10.509 36.839 15.525 10.772 4 27.53 10.95 37.546 16.39 4.98 1.05 11.678 3.83 15.43 7.35l.027 2c-2.41.69-3.041.63-5.575.77-16.209-4.91-53.614-8.92-70.854-10.2-5.406-7.91-10.094-22.428-13.413-31.835"/><path fill="#0a1720" d="M880.032 1019.79c17.24 1.28 54.645 5.29 70.854 10.2 4.546.98 9.973 1.5 13.322 4.31-4.868-.42-10.664-1.3-15.468-2.27-22.849-4.57-45.144-7.71-68.298-10.26z"/><path fill="#99d8bc" d="M271.692 610.74c-.223-5.602 28.596-47.635 33.22-53.837 10.331 25.845 17.768 39.837 35.004 62.133-4.721 10.057-3.625 19.71.176 29.929-18.035-13.945-23.348-17.072-45.168-25.671-4.626-3.197-17.706-9.646-23.232-12.554"/><path fill="#fce1a1" d="M437.659 842.848c6.029 12.313.537 51.192-4.217 64.362-3.396 9.408-15.266 40.383-26.677 40.257-15.04-33.636-1.065-84.707 30.894-104.619"/><path fill="#99d8bc" d="M1069.43 1384.22c6.96-3.34 50.51-14.16 60.65-16.9 3.69 6.55 6.82 12.11 9.99 18.91-12.26 14.18-22.6 27.42-34.14 42.15-5.2-2.13-21.47-8.08-24.22-11.78-3.92-10.86-8.02-21.65-12.28-32.38"/><path fill="#fce1a1" d="m1335.76 668.782 1.08.893c1.21 7.816-7.77 35.153-11.57 43.145-11.25 23.655-27.68 38.527-52.01 47.47l-1.42-1.802c.09-1.85.31-3.691.66-5.509 8-43.113 29.52-61.357 63.26-84.197m4.48 95.183c1.01.345.46.026 1.34 1.361-18.01 38.349-36.93 67.141-81.02 74.321l-.7-.015-.79-1.055c1.6-4.303 3.36-8.548 5.27-12.726 17.97-40.335 36.76-46.845 75.9-61.886m-25.42-175.938c4.95 9.693-3.71 48.778-8.69 59.839-7.58 16.815-16.38 26.857-33.76 33.761-3-4.148-1.19-26.053-.48-31.627 3.79-29.499 20.25-44.84 42.93-61.973M489.143 965.848c7.606 6.674 14.015 24.877 15.853 34.692 4.838 25.82 5.156 51.37-9.518 73.88-24.935-23.85-21.341-79.892-6.335-108.572m793.887-452.941c5.07 7.071 6.37 37.934 4.95 47.645-3.6 24.603-14.17 37.463-32.97 52.278-2.24-2.409-5.35-14.125-5.47-17.44-1.17-31.195 14.08-59.951 33.49-82.483M458.395 910.646c17.246 15.434 6.344 103.754-11.005 106.734-19.941-28.555-11.437-81.587 11.005-106.734m757.635-460.84c27.31 38.878 37 57.629 16.92 103.8-1.29 1.688-.45 1.173-2.52 1.553-3.15-3.057-7.31-11.843-9.66-16.354-14.45-27.725-13.55-59.779-4.74-88.999m104.04 403.574c3.82-.299 2.85-1.006 4.81.599-1.43 6.553-14.68 20.808-19.77 25.637-20.5 19.454-38.49 28.469-66.36 28.461l-3.79.145-.54-1.166c19.94-38.997 44.73-47.639 85.65-53.676m-132.66-68.672c6.26 6.054 25.67 46.179 28.88 55.3a86.6 86.6 0 0 1 4.65 19.891c.82 7.954.76 20.972-4.35 27.295-35.2-24.516-42.89-63.123-29.18-102.486m-764.524-.918 1.676 1.533c2.062 6.774 1.281 11.313.537 18.076-3.478 31.593-20.646 52.737-46.576 69.432-1.604-5.387-3.383-13.91-3.155-19.361 1.155-27.618 24.925-56.097 47.518-69.68m719.894 120.818c7.36 4.522 11.72 30.783 12.86 39.082 3.74 27.175 3.97 42.287-12.87 64.74-25.71-23.57-16.9-77.163.01-103.822m25.57-61.913c1.22 1.304 15.55 34.966 16.75 38.933 7.27 24.044 11.13 46.371-1.14 69.038l-1.41-.033c-28.78-21.175-25.68-78.449-14.2-107.938m-751.59-128.8 1.706 1.509c1.293 6.185-1.255 18.017-3.491 24.066-9.462 25.589-24.183 45.686-48.619 57.856-1.79-.454-.94.022-2.325-1.768a69.3 69.3 0 0 1 3.122-27.602c8.113-24.264 27.002-42.865 49.607-54.061m106.159 303.725c13.752 8.15 22.7 26.09 27.445 40.75 6.358 19.64 5.407 38.67 2.087 58.71-11.946-10.14-16.473-15-22.912-29.72-7.581-17.32-14.087-51.84-6.62-69.74m588.381-65.99 1.32 1.222c1.85 6.193 1.61 11.063 2.52 17.355 4.26 29.352 12.77 60.393-16.76 80.253-21.04-22.29-3.85-77.598 12.92-98.83m-545.225 105.63c6.591 1.61 16.295 10.53 20.454 15.72 18.232 22.73 26.526 44.75 24.145 73.53l-1.437.26c-19.744-6.6-30.062-33.3-36.907-51.15-4.484-11.68-5.789-25.9-6.255-38.36m8.596 102.18c7.605-.92 15.951 2.67 22.895 5.46-14.669 16.28-46.873 30.19-69.061 32.54-6.038.6-17.189-.35-23.677-.72 21.815-23.48 37.531-34.5 69.843-37.28m42.609-78.12c3.782 1.48 14.37 10.12 17.272 13.23 19.307 20.67 29.89 41.59 30.06 69.64-6.717-.84-16.816-7.52-21.03-12.64-16.381-19.95-27.08-44.54-26.302-70.23"/><path fill="#175d78" d="M799.684 1080.12c-24.347 20.66-88.87 30.27-118.855 45-6.8 3.34.653 23.09-1.166 32.9-1.255-.7-3.131-1.05-4.567-1.42-2.567-14.66-5.341-28.81-11.815-42.44 42.52-10.16 94.949-21.99 136.403-34.04"/><path fill="#fce1a1" d="M1253.47 941.353c11.32-.411 22.65.647 33.7 3.148-10.42 7.338-42.8 23.607-54.94 28.736-11.94 4.404-20.21 1.033-31.74-2.713 14.52-16.843 30.84-26.639 52.98-29.171M1051.7 1047.32c8.59-20.9 5.05-27.78 26.37-39.37 1.09 9.87.96 21.75 1.07 31.81 3.6 1.7 3.26 2.44 2.87 6.63l.37 1.25c1.51 4.94 1.8 5.79 4.71 9.97l-.29 2.37c-4.75 2.7-4.72 3.65-8.39 6.78-2.73 3.24-11.66 9.66-15.22 12.13-4.49-10.87-8.29-20.23-11.49-31.57"/><path fill="#0a1720" d="M1079.14 1039.76c3.6 1.7 3.26 2.44 2.87 6.63l.37 1.25c1.51 4.94 1.8 5.79 4.71 9.97l-.29 2.37c-4.75 2.7-4.72 3.65-8.39 6.78l-.26-1.64c-.29-6.35.67-18.79.99-25.36"/><path fill="#24436d" d="m1082.01 1046.39.37 1.25c1.51 4.94 1.8 5.79 4.71 9.97l-.29 2.37c-4.75 2.7-4.72 3.65-8.39 6.78l-.26-1.64c4.06-5.03 3.56-12.11 3.86-18.73"/><path fill="#fce1a1" d="M650.574 1184.25c3.356-.45 6.337-1.2 8.976.97.405 5.77-7.556 12.06-11.228 16.02-14.061 15.16-28.567 20.26-48.247 26.04l-11.572 2.23c10.854-25.84 35.555-40.12 62.071-45.26m476.176-101.85c13.14-1.59 22.82.42 35.46 3.49.37 10.03.24 18.89.01 28.88-6.72-1.86-13.34-4.17-19.96-6.39-16.39-6.53-28.24-11.65-43.73-20.07 10.02-3.11 17.89-4.71 28.22-5.91M384.794 670.659c7.018 6.31 13.937 11.734 21.319 17.575-7.776 11.156-15.015 17.841-26.827 24.301-6.695 2.899-9.183 3.633-16.248 5.409 2.537-19.912 10.76-31.173 21.756-47.285"/><path fill="#1f6a81" d="m1548.06 1710.72 1.28.63c-1.36 3.89-177.47 117.55-199.79 130.19h-.88c3.81-8.87 178.05-117.91 199.39-130.82"/><path fill="#0a1720" d="m348.557 628.796 1.949-.687c1.305 1.471 1.686 2.137 2.468 3.907 4.805 10.873 19.268 22.095 24.3 31.317-.649 1.562-7.307 12.197-7.344 11.662.336 4.843-.499 7.559-5.175 10.626l-1.64-.704c-.944-3.214-.433-4.429.189-7.697l-.377-1.915c-1.752 2.359-2.002 2.327-3.092 4.949l-.059 7.759c-.171-3.125-1.026-6.283-1.712-9.358l-.335-11.811 2.278-.72.61-3.708c-7.67-15.661-15.552-11.629-12.06-33.62"/><path fill="#fce1a1" d="M348.557 628.796c4.309 7.832 8.117 13.178 13.698 20.234-.433 4.567-.729 8.883-1.638 13.386-7.67-15.661-15.552-11.629-12.06-33.62"/><path fill="#fbf7ce" d="m362.927 675.305-.167-3.684c2.399.34 1.562.398 3.984 2.46 1.307 3.125 1.289 2.882.672 6.21L365.788 682l-1.533-.29-.951-4.49z"/><path fill="#83989f" d="m357.729 666.844 2.278-.72c.031 4.771.131 9.362-.172 14.13l-.059 7.759c-.171-3.125-1.026-6.283-1.712-9.358z"/><path fill="#fbf7ce" d="M366.558 654.382c4.472 2.001 8.135 5.78 8.77 10.661-3.963 1.065-5.17 1.13-8.432-.62-1.674-3.27-.787-6.244-.338-10.041"/><path fill="#fce1a1" d="M1163.77 1031.3c1.4 6.24-.6 24-1.21 30.8-5.15-1.95-9.21-3.81-14.14-6.12-3.16-1.95-6.37-4.25-9.45-6.36 10.11-10.92 11.39-11.83 24.8-18.32"/><path fill="#e99972" d="M1000.02 1045.74c3.77-1.26 6.38-2.74 9.95-1.45l-4.28 4.31.18 1.35.45 4.99-1.44 1.6c-.58-.38-4.43-2.82-4.44-2.82-17.402.29-38.607 11.18-55.775 14.35-1.765.32-3.597-1.55-4.699-2.82 3.268-3.83 51.288-16.25 60.054-19.51"/><path fill="#f2c471" d="M1000.02 1045.74c3.77-1.26 6.38-2.74 9.95-1.45l-4.28 4.31z"/><path fill="#fce1a1" d="M676.679 1195.17c4.306-.25 4.971-.56 8.643 1.31 4.034 7.82-24.814 20.63-30.988 23.95l-8.122 3.07c8.367-11.8 16.279-23.96 30.467-28.33"/><path fill="#175d78" d="M1160.07 1358.21c1.24.17.48-.05 2.06 1.18.16 1.15.51 3.69.03 4.68-2.15 4.45-14.57 13.57-18.53 15.26l-1.6-1.87c-3.29-5.69-4.67-7.35-8.85-12.32 8.93-2.43 17.9-4.74 26.89-6.93"/><path fill="#99d8bc" d="M361.354 514.36c5.224.155 11.508.883 16.796 1.354a843 843 0 0 0-10.815 19.887c-.955 2.186-.945 2.141-2.475 3.978-5.217-3.189-6.92-15.262-6.721-20.89.093-2.604 1.375-2.904 3.215-4.329"/><path fill="#9fcdb0" d="M398.956 871.071c.165 2.569-8.229 36.041-8.719 36.422l-2.578-6.246-6.832-19.317c7.608-3.521 11.309-6.034 18.129-10.859"/><path fill="#99d8bc" d="M398.711 432.747c2.068 11.18-1.632 11.657 3.721 25.466-3.784-.885-9.221-1.485-13.187-2.044-2.899-.126-5.814-.373-8.711-.584l-.445-.926c4.122-6.989 12.834-16.097 18.622-21.912"/><path fill="#9fcdb0" d="m379.56 802.28 4.502.187-.027 2.325c-5.497 9.133-11.116 18.808-15.236 28.618-1.797-8.796-3.714-17.6-4.973-26.485 3.956.01 9.459.297 13.167-.43.641-2.903.279-1.586 2.567-4.215"/><path fill="#0c2021" d="m379.56 802.28 4.502.187-.027 2.325c-2.751.891-4.105 1.458-7.042 1.703.641-2.903.279-1.586 2.567-4.215"/><path fill="#2e8898" d="M1267.89 1829.22c7.36 1.95 20.54 8.24 28.26 11.55-7.85 2.79-16.56 6.13-24.56 8.15a632 632 0 0 0-3.7-19.7"/><path fill="#1f6a81" d="M426.85 952.085c1.446 2.688-.42 25.878-1.468 29.951l-.919.445-2.443-3.917c-3.062-5.531-6.797-14.088-9.586-20.002 5.842-3.825 7.642-4.936 14.416-6.477"/><path fill="#99d8bc" d="m380.218 724.491.611.451c-2.355 5.076-12.083 14.15-17.736 25.93-1.626-1.717-1.05-19.985-1.047-23.543 5.886-1.055 12.226-1.919 18.172-2.838"/><path fill="#fbf7ce" d="M1218.59 822.955c4.53 2.237 10.99 6.222 15.53 8.832l-4.4 14.992-1.23 2.99c-3.85-11.399-4.79-15.014-9.9-26.814M512.935 1067.12c1.228 2.41 6.45 20.76 6.434 23.96l-2.005-1.33a574 574 0 0 1-12.939-13.08z"/><path fill="#fce1a1" d="m1287.7 686.222 2.23.812c-7.54 8.17-11.29 15.919-16.71 25.481.1-6.486.05-13.063.07-19.558 5.3-1.616 10.31-3.037 14.41-6.735"/><path fill="#fbf7ce" d="M1194.96 980.768c3.56 2.739 4.96 3.36 9.03 5.413l-17.28 10.831c-2.44 1.556-2.5 1.895-5.29 2.255.64-3.282 10.88-15.167 13.54-18.499"/><path fill="#fce1a1" d="M1197.68 887.762c3.55 2.184 8.26 6.089 11.68 8.741-1.88 4.474-3.89 10.608-5.57 15.301l-1.44 2.351c-.58-1.355-3.48-21.244-4.67-26.393"/><path fill="#fbf7ce" d="M1129.04 1061.83c5.59 3.73 8.12 5.45 14.25 8.32l-2.02 1.18c-9.62-1.1-17.39.76-26.83 2.54zm141.44-444.813c.45 3.37-5.47 17.285-7.1 21.503l-1.01-.752-4.61-14.383c4.82-2.038 8.18-3.883 12.72-6.368M564.482 1106.78c1.982 2.32 11.109 21.41 10.845 24.2l-12.848-7.96c.411-5.64 1.183-10.68 2.003-16.24m490.338-88.69.57 1.68c-2.84 6.47-4.52 9.44-8.19 15.48l-1.65.21-4.71-9.76zm-434.442 119.54c2.757 2.5 9.024 14 11.107 17.85-4.471-1.04-8.248-2.42-12.571-3.9.852-4.7 1.092-9.19 1.464-13.95"/><path fill="#7dbfa0" d="M458.313 1018.87c2.383.11 5.355.14 7.666.44l1.106 17.53c-2.682-3.81-9.043-11.31-10.371-14.87z"/><path fill="#fce1a1" d="M1167.57 951.524c2.6 2.093 6.21 5.794 8.73 8.205l-5.2 8.769-1.46 1.888-1.12-.391c-1.26-5.42-.93-12.746-.95-18.471"/><path fill="#fbf7ce" d="M1256.79 845.565c4.39 2.075 6.7 2.583 11.36 3.837-3.54 2.502-7.14 5.236-10.65 7.815l-6.2 5.583c2.08-5.864 3.72-11.281 5.49-17.235"/><path fill="#99d8bc" d="M415.041 695.938c2.766 2.494 6.014 5.091 8.897 7.508-3.737 1.446-4.665 1.442-8.723 1.933-2.612 1.288-7.783 3.182-10.667 4.348 3.524-4.405 7.073-9.261 10.493-13.789"/><path fill="#fce1a1" d="m1231.02 916.867 13.84.536-11.84 5.631-8.78 5.686z"/><path fill="#fbf7ce" d="m1083.26 1099.73 1.82.6.78 1.6c-1.65 3.48-6.38 7.16-9.41 9.9-2.08-2.36-2.5-2.3-2.87-5.3 1.7-3.04 6.42-5.01 9.68-6.8"/><path fill="#2e8898" d="m1244.94 549.539 1.34 1.801c-2.14 6.523-3.68 13.268-7.98 18.458-1.56-4.523 4.53-15.836 6.64-20.259"/><path fill="#9fcdb0" d="M430.635 935.902c-.414 4.457-.364 7.876-2.255 11.902-3.284 2.808-2.399 1.92-7.578 2.454.459-3.011 7.495-11.315 9.833-14.356"/><path fill="#0d2044" d="m1287.7 686.222.38-1.613c3.66-2.021 9.01-7.702 12.52-7.252-1.94 5.231-4.67 8.406-10.67 9.677z"/><path fill="#bec2a6" d="M379.56 802.28c8.399-5.938 13.539-10.321 21.214-17.015-4.228 6.246-9.772 14.14-16.712 17.202z"/><path fill="#fbf7ce" d="m1129.2 1008.71 4.84 4.91c.71 3.74.7 2.32-1.99 6.49l-2.4 1.93c-1.63-2.82-.66-9.67-.45-13.33"/><path fill="#9fcdb0" d="M466.894 1005.27c-.409 4.66-.942 9.37-.915 14.04-2.311-.3-5.283-.33-7.666-.44 3.553-5.01 5.552-8.27 8.581-13.6m208.202 151.33c1.436.37 3.312.72 4.567 1.42.666 3.72 1.785 5.41-.863 8.12l-1.75-.7c-2.535-4.2-1.716-3.28-1.954-8.84"/><path fill="#24436d" d="M1143.29 1070.15c3.9.67 10.87 1.65 14.44 2.71l.33 1.46.62-1.18 1.13 1.22.67-.48c-.58.17-1.17.35-1.76.52l.05-1.2-1.33 1.11c-5.41-.86-10.8-1.86-16.17-2.98z"/><path fill="#bec2a6" d="m450.388 381.247 1.92 1.161c-2.731 2.222-3.068 2.392-6.015 3.971l-.001-1.139z"/><path fill="#ae998a" d="m1006.32 1054.94 1.49 7.07-1.21.15-1.72-5.62z"/><path fill="#162b53" d="m477.025 959.951.944-.323c-.198 3.404-.104 3.625-1.196 6.997-1-2.159-.19-3.8.252-6.674"/></svg>